<?xml version="1.0" encoding="UTF-8"?> <svg xmlns="http://www.w3.org/2000/svg" width="360" height="139" viewBox="0 0 360 139" fill="none"><path d="M50.4309 2V58H34.5909V14.24H24.1909V2H50.4309ZM102.133 45.44V58H58.5328V48.08L79.4928 28.48C81.5195 26.56 82.8795 24.9333 83.5728 23.6C84.2661 22.2133 84.6128 20.8267 84.6128 19.44C84.6128 17.6267 83.9995 16.2133 82.7728 15.2C81.5461 14.1867 79.7595 13.68 77.4128 13.68C75.3328 13.68 73.4128 14.16 71.6528 15.12C69.9461 16.0267 68.5328 17.36 67.4128 19.12L55.6528 12.56C57.8395 8.93333 60.9061 6.08 64.8528 4C68.7995 1.92 73.4661 0.879996 78.8528 0.879996C83.1195 0.879996 86.8795 1.57333 90.1328 2.96C93.4395 4.34666 95.9995 6.34666 97.8128 8.96C99.6795 11.52 100.613 14.5067 100.613 17.92C100.613 20.96 99.9461 23.84 98.6128 26.56C97.3328 29.2267 94.8261 32.2667 91.0928 35.68L80.5328 45.44H102.133ZM116.085 58.72C113.525 58.72 111.365 57.8667 109.605 56.16C107.845 54.4533 106.965 52.2933 106.965 49.68C106.965 47.0133 107.818 44.8533 109.525 43.2C111.285 41.5467 113.471 40.72 116.085 40.72C118.751 40.72 120.938 41.5467 122.645 43.2C124.351 44.8533 125.205 47.0133 125.205 49.68C125.205 52.2933 124.325 54.4533 122.565 56.16C120.858 57.8667 118.698 58.72 116.085 58.72ZM151.141 22.4C158.981 22.4 164.768 24 168.501 27.2C172.288 30.4 174.181 34.6667 174.181 40C174.181 43.4667 173.274 46.6667 171.461 49.6C169.701 52.48 166.981 54.8 163.301 56.56C159.674 58.2667 155.168 59.12 149.781 59.12C145.834 59.12 141.914 58.64 138.021 57.68C134.181 56.72 130.874 55.36 128.101 53.6L133.781 41.68C136.021 43.1733 138.474 44.32 141.141 45.12C143.861 45.92 146.581 46.32 149.301 46.32C152.021 46.32 154.181 45.8133 155.781 44.8C157.434 43.7333 158.261 42.2667 158.261 40.4C158.261 38.5333 157.461 37.12 155.861 36.16C154.261 35.2 151.434 34.72 147.381 34.72H132.181L134.981 2H170.661V14.24H148.101L147.381 22.4H151.141ZM192.793 14.56H175.593V2H225.753V14.56H208.633V58H192.793V14.56ZM274.695 28.8C277.895 29.92 280.401 31.68 282.215 34.08C284.028 36.4267 284.935 39.28 284.935 42.64C284.935 47.5467 282.961 51.3333 279.015 54C275.068 56.6667 269.361 58 261.895 58H231.655V2H260.295C267.441 2 272.881 3.33333 276.615 6C280.348 8.61333 282.215 12.16 282.215 16.64C282.215 19.3067 281.548 21.7067 280.215 23.84C278.935 25.92 277.095 27.5733 274.695 28.8ZM247.335 13.44V24.24H258.215C263.548 24.24 266.215 22.4267 266.215 18.8C266.215 15.2267 263.548 13.44 258.215 13.44H247.335ZM260.615 46.56C266.161 46.56 268.935 44.6667 268.935 40.88C268.935 37.0933 266.161 35.2 260.615 35.2H247.335V46.56H260.615ZM331.619 35.84H318.099V49.04H305.779V35.84H292.179V24.16H305.779V10.96H318.099V24.16H331.619V35.84Z" fill="url(#paint0_linear_5460_82152)"></path><path d="M132.545 94.252C130.921 94.252 129.455 93.916 128.149 93.244C126.842 92.572 125.815 91.6387 125.069 90.444C124.341 89.2493 123.977 87.896 123.977 86.384C123.977 84.8907 124.341 83.5467 125.069 82.352C125.815 81.1573 126.833 80.2333 128.121 79.58C129.427 78.908 130.902 78.572 132.545 78.572C134.187 78.572 135.662 78.908 136.969 79.58C138.275 80.2333 139.293 81.1573 140.021 82.352C140.749 83.528 141.113 84.872 141.113 86.384C141.113 87.896 140.749 89.2493 140.021 90.444C139.293 91.6387 138.275 92.572 136.969 93.244C135.662 93.916 134.187 94.252 132.545 94.252ZM132.545 90.024C133.478 90.024 134.243 89.7067 134.841 89.072C135.438 88.4187 135.737 87.5227 135.737 86.384C135.737 85.264 135.438 84.3867 134.841 83.752C134.243 83.1173 133.478 82.8 132.545 82.8C131.611 82.8 130.846 83.1173 130.249 83.752C129.651 84.3867 129.353 85.264 129.353 86.384C129.353 87.5227 129.651 88.4187 130.249 89.072C130.846 89.7067 131.611 90.024 132.545 90.024ZM149.373 79.384H152.985V83.36H149.513V94H144.193V83.36H141.981V79.384H144.193V78.992C144.193 77.144 144.744 75.6787 145.845 74.596C146.965 73.5133 148.524 72.972 150.521 72.972C151.193 72.972 151.846 73.0373 152.481 73.168C153.116 73.2987 153.638 73.4947 154.049 73.756L152.733 77.508C152.21 77.2093 151.678 77.06 151.137 77.06C150.577 77.06 150.138 77.228 149.821 77.564C149.522 77.9 149.373 78.3947 149.373 79.048V79.384ZM179.229 73.224V94H174.161V92.488C173.171 93.664 171.687 94.252 169.709 94.252C168.327 94.252 167.067 93.9347 165.929 93.3C164.79 92.6467 163.885 91.7227 163.213 90.528C162.559 89.3333 162.233 87.952 162.233 86.384C162.233 84.816 162.559 83.444 163.213 82.268C163.885 81.0733 164.79 80.1587 165.929 79.524C167.067 78.8893 168.327 78.572 169.709 78.572C171.519 78.572 172.919 79.0947 173.909 80.14V73.224H179.229ZM170.829 90.024C171.743 90.024 172.499 89.7067 173.097 89.072C173.694 88.4187 173.993 87.5227 173.993 86.384C173.993 85.264 173.694 84.3867 173.097 83.752C172.518 83.1173 171.762 82.8 170.829 82.8C169.895 82.8 169.13 83.1173 168.533 83.752C167.935 84.3867 167.637 85.264 167.637 86.384C167.637 87.5227 167.935 88.4187 168.533 89.072C169.13 89.7067 169.895 90.024 170.829 90.024ZM189.119 78.572C191.639 78.572 193.562 79.1507 194.887 80.308C196.213 81.4467 196.875 83.2013 196.875 85.572V94H191.919V92.04C191.154 93.5147 189.661 94.252 187.439 94.252C186.263 94.252 185.246 94.0467 184.387 93.636C183.529 93.2253 182.875 92.6747 182.427 91.984C181.998 91.2747 181.783 90.472 181.783 89.576C181.783 88.1387 182.334 87.028 183.435 86.244C184.537 85.4413 186.235 85.04 188.531 85.04H191.555C191.462 83.4347 190.389 82.632 188.335 82.632C187.607 82.632 186.87 82.7533 186.123 82.996C185.377 83.22 184.742 83.5373 184.219 83.948L182.427 80.336C183.267 79.776 184.285 79.3467 185.479 79.048C186.693 78.7307 187.906 78.572 189.119 78.572ZM188.923 90.892C189.539 90.892 190.081 90.7427 190.547 90.444C191.014 90.1453 191.35 89.7067 191.555 89.128V87.812H189.259C187.71 87.812 186.935 88.3253 186.935 89.352C186.935 89.8187 187.113 90.192 187.467 90.472C187.822 90.752 188.307 90.892 188.923 90.892ZM210.705 93.384C210.257 93.664 209.707 93.8787 209.053 94.028C208.419 94.1773 207.737 94.252 207.009 94.252C205.031 94.252 203.509 93.7667 202.445 92.796C201.381 91.8253 200.849 90.3787 200.849 88.456V83.36H198.637V79.384H200.849V75.436H206.169V79.384H209.641V83.36H206.169V88.4C206.169 88.9413 206.309 89.3707 206.589 89.688C206.888 89.9867 207.28 90.136 207.765 90.136C208.381 90.136 208.923 89.9773 209.389 89.66L210.705 93.384ZM219.225 78.572C221.745 78.572 223.667 79.1507 224.993 80.308C226.318 81.4467 226.981 83.2013 226.981 85.572V94H222.025V92.04C221.259 93.5147 219.766 94.252 217.545 94.252C216.369 94.252 215.351 94.0467 214.493 93.636C213.634 93.2253 212.981 92.6747 212.533 91.984C212.103 91.2747 211.889 90.472 211.889 89.576C211.889 88.1387 212.439 87.028 213.541 86.244C214.642 85.4413 216.341 85.04 218.637 85.04H221.661C221.567 83.4347 220.494 82.632 218.441 82.632C217.713 82.632 216.975 82.7533 216.229 82.996C215.482 83.22 214.847 83.5373 214.325 83.948L212.533 80.336C213.373 79.776 214.39 79.3467 215.585 79.048C216.798 78.7307 218.011 78.572 219.225 78.572ZM219.029 90.892C219.645 90.892 220.186 90.7427 220.653 90.444C221.119 90.1453 221.455 89.7067 221.661 89.128V87.812H219.365C217.815 87.812 217.041 88.3253 217.041 89.352C217.041 89.8187 217.218 90.192 217.573 90.472C217.927 90.752 218.413 90.892 219.029 90.892ZM74.5802 114.572C75.9616 114.572 77.2122 114.899 78.3322 115.552C79.4709 116.187 80.3669 117.101 81.0202 118.296C81.6922 119.472 82.0282 120.844 82.0282 122.412C82.0282 123.98 81.6922 125.361 81.0202 126.556C80.3669 127.732 79.4709 128.647 78.3322 129.3C77.2122 129.935 75.9616 130.252 74.5802 130.252C72.8069 130.252 71.3976 129.72 70.3522 128.656V135.432H65.0322V114.824H70.1002V116.336C71.0896 115.16 72.5829 114.572 74.5802 114.572ZM73.4602 126.024C74.3936 126.024 75.1589 125.707 75.7562 125.072C76.3536 124.419 76.6522 123.532 76.6522 122.412C76.6522 121.292 76.3536 120.415 75.7562 119.78C75.1589 119.127 74.3936 118.8 73.4602 118.8C72.5269 118.8 71.7616 119.127 71.1642 119.78C70.5669 120.415 70.2682 121.292 70.2682 122.412C70.2682 123.532 70.5669 124.419 71.1642 125.072C71.7616 125.707 72.5269 126.024 73.4602 126.024ZM89.569 116.644C90.1103 115.953 90.8103 115.44 91.669 115.104C92.5463 114.749 93.545 114.572 94.665 114.572V119.36C94.1796 119.304 93.7783 119.276 93.461 119.276C92.3223 119.276 91.4263 119.584 90.773 120.2C90.1383 120.816 89.821 121.759 89.821 123.028V130H84.501V114.824H89.569V116.644ZM104.34 130.252C102.716 130.252 101.25 129.916 99.9436 129.244C98.637 128.572 97.6103 127.639 96.8636 126.444C96.1356 125.249 95.7716 123.896 95.7716 122.384C95.7716 120.891 96.1356 119.547 96.8636 118.352C97.6103 117.157 98.6276 116.233 99.9156 115.58C101.222 114.908 102.697 114.572 104.34 114.572C105.982 114.572 107.457 114.908 108.764 115.58C110.07 116.233 111.088 117.157 111.816 118.352C112.544 119.528 112.908 120.872 112.908 122.384C112.908 123.896 112.544 125.249 111.816 126.444C111.088 127.639 110.07 128.572 108.764 129.244C107.457 129.916 105.982 130.252 104.34 130.252ZM104.34 126.024C105.273 126.024 106.038 125.707 106.636 125.072C107.233 124.419 107.532 123.523 107.532 122.384C107.532 121.264 107.233 120.387 106.636 119.752C106.038 119.117 105.273 118.8 104.34 118.8C103.406 118.8 102.641 119.117 102.044 119.752C101.446 120.387 101.148 121.264 101.148 122.384C101.148 123.523 101.446 124.419 102.044 125.072C102.641 125.707 103.406 126.024 104.34 126.024ZM123.128 130.252C121.448 130.252 119.945 129.916 118.62 129.244C117.295 128.572 116.259 127.639 115.512 126.444C114.784 125.249 114.42 123.896 114.42 122.384C114.42 120.872 114.784 119.528 115.512 118.352C116.259 117.157 117.295 116.233 118.62 115.58C119.945 114.908 121.448 114.572 123.128 114.572C124.845 114.572 126.329 114.945 127.58 115.692C128.831 116.42 129.717 117.437 130.24 118.744L126.124 120.844C125.433 119.481 124.425 118.8 123.1 118.8C122.148 118.8 121.355 119.117 120.72 119.752C120.104 120.387 119.796 121.264 119.796 122.384C119.796 123.523 120.104 124.419 120.72 125.072C121.355 125.707 122.148 126.024 123.1 126.024C124.425 126.024 125.433 125.343 126.124 123.98L130.24 126.08C129.717 127.387 128.831 128.413 127.58 129.16C126.329 129.888 124.845 130.252 123.128 130.252ZM147.591 122.44C147.591 122.477 147.563 122.916 147.507 123.756H136.475C136.699 124.54 137.128 125.147 137.763 125.576C138.416 125.987 139.228 126.192 140.199 126.192C140.927 126.192 141.552 126.089 142.075 125.884C142.616 125.679 143.158 125.343 143.699 124.876L146.499 127.788C145.024 129.431 142.868 130.252 140.031 130.252C138.258 130.252 136.699 129.916 135.355 129.244C134.011 128.572 132.966 127.639 132.219 126.444C131.491 125.249 131.127 123.896 131.127 122.384C131.127 120.891 131.482 119.556 132.191 118.38C132.919 117.185 133.918 116.252 135.187 115.58C136.456 114.908 137.884 114.572 139.471 114.572C140.983 114.572 142.355 114.889 143.587 115.524C144.819 116.14 145.79 117.045 146.499 118.24C147.227 119.416 147.591 120.816 147.591 122.44ZM139.499 118.352C138.678 118.352 137.987 118.585 137.427 119.052C136.886 119.519 136.54 120.153 136.391 120.956H142.607C142.458 120.153 142.103 119.519 141.543 119.052C141.002 118.585 140.32 118.352 139.499 118.352ZM155.56 130.252C154.291 130.252 153.04 130.112 151.808 129.832C150.576 129.533 149.587 129.151 148.84 128.684L150.436 125.044C151.127 125.473 151.948 125.819 152.9 126.08C153.852 126.323 154.795 126.444 155.728 126.444C156.587 126.444 157.193 126.36 157.548 126.192C157.921 126.005 158.108 125.744 158.108 125.408C158.108 125.072 157.884 124.839 157.436 124.708C157.007 124.559 156.316 124.419 155.364 124.288C154.151 124.139 153.115 123.943 152.256 123.7C151.416 123.457 150.688 123.009 150.072 122.356C149.456 121.703 149.148 120.788 149.148 119.612C149.148 118.641 149.437 117.783 150.016 117.036C150.595 116.271 151.435 115.673 152.536 115.244C153.656 114.796 154.991 114.572 156.54 114.572C157.641 114.572 158.733 114.684 159.816 114.908C160.899 115.132 161.804 115.449 162.532 115.86L160.936 119.472C159.592 118.725 158.136 118.352 156.568 118.352C155.728 118.352 155.112 118.455 154.72 118.66C154.328 118.847 154.132 119.099 154.132 119.416C154.132 119.771 154.347 120.023 154.776 120.172C155.205 120.303 155.915 120.443 156.904 120.592C158.155 120.779 159.191 120.993 160.012 121.236C160.833 121.479 161.543 121.927 162.14 122.58C162.756 123.215 163.064 124.111 163.064 125.268C163.064 126.22 162.775 127.079 162.196 127.844C161.617 128.591 160.759 129.179 159.62 129.608C158.5 130.037 157.147 130.252 155.56 130.252ZM170.872 130.252C169.603 130.252 168.352 130.112 167.12 129.832C165.888 129.533 164.899 129.151 164.152 128.684L165.748 125.044C166.439 125.473 167.26 125.819 168.212 126.08C169.164 126.323 170.107 126.444 171.04 126.444C171.899 126.444 172.506 126.36 172.86 126.192C173.234 126.005 173.42 125.744 173.42 125.408C173.42 125.072 173.196 124.839 172.748 124.708C172.319 124.559 171.628 124.419 170.676 124.288C169.463 124.139 168.427 123.943 167.568 123.7C166.728 123.457 166 123.009 165.384 122.356C164.768 121.703 164.46 120.788 164.46 119.612C164.46 118.641 164.75 117.783 165.328 117.036C165.907 116.271 166.747 115.673 167.848 115.244C168.968 114.796 170.303 114.572 171.852 114.572C172.954 114.572 174.046 114.684 175.128 114.908C176.211 115.132 177.116 115.449 177.844 115.86L176.248 119.472C174.904 118.725 173.448 118.352 171.88 118.352C171.04 118.352 170.424 118.455 170.032 118.66C169.64 118.847 169.444 119.099 169.444 119.416C169.444 119.771 169.659 120.023 170.088 120.172C170.518 120.303 171.227 120.443 172.216 120.592C173.467 120.779 174.503 120.993 175.324 121.236C176.146 121.479 176.855 121.927 177.452 122.58C178.068 123.215 178.376 124.111 178.376 125.268C178.376 126.22 178.087 127.079 177.508 127.844C176.93 128.591 176.071 129.179 174.932 129.608C173.812 130.037 172.459 130.252 170.872 130.252ZM196.181 122.44C196.181 122.477 196.153 122.916 196.097 123.756H185.065C185.289 124.54 185.718 125.147 186.353 125.576C187.006 125.987 187.818 126.192 188.789 126.192C189.517 126.192 190.142 126.089 190.665 125.884C191.206 125.679 191.748 125.343 192.289 124.876L195.089 127.788C193.614 129.431 191.458 130.252 188.621 130.252C186.848 130.252 185.289 129.916 183.945 129.244C182.601 128.572 181.556 127.639 180.809 126.444C180.081 125.249 179.717 123.896 179.717 122.384C179.717 120.891 180.072 119.556 180.781 118.38C181.509 117.185 182.508 116.252 183.777 115.58C185.046 114.908 186.474 114.572 188.061 114.572C189.573 114.572 190.945 114.889 192.177 115.524C193.409 116.14 194.38 117.045 195.089 118.24C195.817 119.416 196.181 120.816 196.181 122.44ZM188.089 118.352C187.268 118.352 186.577 118.585 186.017 119.052C185.476 119.519 185.13 120.153 184.981 120.956H191.197C191.048 120.153 190.693 119.519 190.133 119.052C189.592 118.585 188.91 118.352 188.089 118.352ZM214.762 109.224V130H209.694V128.488C208.704 129.664 207.22 130.252 205.242 130.252C203.86 130.252 202.6 129.935 201.462 129.3C200.323 128.647 199.418 127.723 198.746 126.528C198.092 125.333 197.766 123.952 197.766 122.384C197.766 120.816 198.092 119.444 198.746 118.268C199.418 117.073 200.323 116.159 201.462 115.524C202.6 114.889 203.86 114.572 205.242 114.572C207.052 114.572 208.452 115.095 209.442 116.14V109.224H214.762ZM206.362 126.024C207.276 126.024 208.032 125.707 208.63 125.072C209.227 124.419 209.526 123.523 209.526 122.384C209.526 121.264 209.227 120.387 208.63 119.752C208.051 119.117 207.295 118.8 206.362 118.8C205.428 118.8 204.663 119.117 204.066 119.752C203.468 120.387 203.17 121.264 203.17 122.384C203.17 123.523 203.468 124.419 204.066 125.072C204.663 125.707 205.428 126.024 206.362 126.024ZM242.461 109.224V130H237.393V128.488C236.404 129.664 234.92 130.252 232.941 130.252C231.56 130.252 230.3 129.935 229.161 129.3C228.022 128.647 227.117 127.723 226.445 126.528C225.792 125.333 225.465 123.952 225.465 122.384C225.465 120.816 225.792 119.444 226.445 118.268C227.117 117.073 228.022 116.159 229.161 115.524C230.3 114.889 231.56 114.572 232.941 114.572C234.752 114.572 236.152 115.095 237.141 116.14V109.224H242.461ZM234.061 126.024C234.976 126.024 235.732 125.707 236.329 125.072C236.926 124.419 237.225 123.523 237.225 122.384C237.225 121.264 236.926 120.387 236.329 119.752C235.75 119.117 234.994 118.8 234.061 118.8C233.128 118.8 232.362 119.117 231.765 119.752C231.168 120.387 230.869 121.264 230.869 122.384C230.869 123.523 231.168 124.419 231.765 125.072C232.362 125.707 233.128 126.024 234.061 126.024ZM252.352 114.572C254.872 114.572 256.794 115.151 258.12 116.308C259.445 117.447 260.108 119.201 260.108 121.572V130H255.152V128.04C254.386 129.515 252.893 130.252 250.672 130.252C249.496 130.252 248.478 130.047 247.62 129.636C246.761 129.225 246.108 128.675 245.66 127.984C245.23 127.275 245.016 126.472 245.016 125.576C245.016 124.139 245.566 123.028 246.668 122.244C247.769 121.441 249.468 121.04 251.764 121.04H254.788C254.694 119.435 253.621 118.632 251.568 118.632C250.84 118.632 250.102 118.753 249.356 118.996C248.609 119.22 247.974 119.537 247.452 119.948L245.66 116.336C246.5 115.776 247.517 115.347 248.712 115.048C249.925 114.731 251.138 114.572 252.352 114.572ZM252.156 126.892C252.772 126.892 253.313 126.743 253.78 126.444C254.246 126.145 254.582 125.707 254.788 125.128V123.812H252.492C250.942 123.812 250.168 124.325 250.168 125.352C250.168 125.819 250.345 126.192 250.7 126.472C251.054 126.752 251.54 126.892 252.156 126.892ZM263.466 114.824H268.786V130H263.466V114.824ZM266.126 113.144C265.155 113.144 264.371 112.873 263.774 112.332C263.176 111.791 262.878 111.119 262.878 110.316C262.878 109.513 263.176 108.841 263.774 108.3C264.371 107.759 265.155 107.488 266.126 107.488C267.096 107.488 267.88 107.749 268.478 108.272C269.075 108.776 269.374 109.429 269.374 110.232C269.374 111.072 269.075 111.772 268.478 112.332C267.88 112.873 267.096 113.144 266.126 113.144ZM272.243 109.224H277.563V130H272.243V109.224ZM297.009 114.824L290.457 130.616C289.691 132.483 288.758 133.789 287.657 134.536C286.555 135.301 285.211 135.684 283.625 135.684C282.822 135.684 282.01 135.553 281.189 135.292C280.386 135.049 279.733 134.723 279.228 134.312L281.077 130.588C281.375 130.868 281.73 131.083 282.141 131.232C282.57 131.4 282.999 131.484 283.428 131.484C283.933 131.484 284.343 131.381 284.661 131.176C284.997 130.971 285.277 130.644 285.501 130.196L279.004 114.824H284.465L288.189 124.092L291.941 114.824H297.009Z" fill="black"></path><defs><linearGradient id="paint0_linear_5460_82152" x1="67" y1="2" x2="334.031" y2="18.0824" gradientUnits="userSpaceOnUse"><stop stop-color="#0033E6"></stop><stop offset="1" stop-color="#9F01E8"></stop></linearGradient></defs></svg> 