<?xml version="1.0" encoding="UTF-8"?> <svg xmlns="http://www.w3.org/2000/svg" width="360" height="139" viewBox="0 0 360 139" fill="none"><path d="M82.8138 2V58H66.9738V14.24H56.5738V2H82.8138ZM115.956 59.12C111.156 59.12 106.889 57.9733 103.156 55.68C99.4223 53.3867 96.489 50.0533 94.3556 45.68C92.2756 41.2533 91.2356 36.0267 91.2356 30C91.2356 23.9733 92.2756 18.7733 94.3556 14.4C96.489 9.97333 99.4223 6.61333 103.156 4.32C106.889 2.02666 111.156 0.879996 115.956 0.879996C120.702 0.879996 124.942 2.02666 128.676 4.32C132.409 6.61333 135.316 9.97333 137.396 14.4C139.529 18.7733 140.596 23.9733 140.596 30C140.596 36.0267 139.529 41.2533 137.396 45.68C135.316 50.0533 132.409 53.3867 128.676 55.68C124.942 57.9733 120.702 59.12 115.956 59.12ZM115.956 46.16C118.622 46.16 120.729 44.88 122.276 42.32C123.876 39.7067 124.676 35.6 124.676 30C124.676 24.4 123.876 20.32 122.276 17.76C120.729 15.1467 118.622 13.84 115.956 13.84C113.236 13.84 111.076 15.1467 109.476 17.76C107.929 20.32 107.156 24.4 107.156 30C107.156 35.6 107.929 39.7067 109.476 42.32C111.076 44.88 113.236 46.16 115.956 46.16ZM170.721 59.12C165.921 59.12 161.655 57.9733 157.921 55.68C154.188 53.3867 151.255 50.0533 149.121 45.68C147.041 41.2533 146.001 36.0267 146.001 30C146.001 23.9733 147.041 18.7733 149.121 14.4C151.255 9.97333 154.188 6.61333 157.921 4.32C161.655 2.02666 165.921 0.879996 170.721 0.879996C175.468 0.879996 179.708 2.02666 183.441 4.32C187.175 6.61333 190.081 9.97333 192.161 14.4C194.295 18.7733 195.361 23.9733 195.361 30C195.361 36.0267 194.295 41.2533 192.161 45.68C190.081 50.0533 187.175 53.3867 183.441 55.68C179.708 57.9733 175.468 59.12 170.721 59.12ZM170.721 46.16C173.388 46.16 175.495 44.88 177.041 42.32C178.641 39.7067 179.441 35.6 179.441 30C179.441 24.4 178.641 20.32 177.041 17.76C175.495 15.1467 173.388 13.84 170.721 13.84C168.001 13.84 165.841 15.1467 164.241 17.76C162.695 20.32 161.921 24.4 161.921 30C161.921 35.6 162.695 39.7067 164.241 42.32C165.841 44.88 168.001 46.16 170.721 46.16ZM225.247 37.68L219.327 44V58H203.647V2H219.327V25.28L241.007 2H258.447L235.567 26.8L259.647 58H241.247L225.247 37.68ZM299.236 35.84H285.716V49.04H273.396V35.84H259.796V24.16H273.396V10.96H285.716V24.16H299.236V35.84Z" fill="url(#paint0_linear_5460_82139)"></path><path d="M70.4858 78.572C72.3524 78.572 73.8364 79.132 74.9378 80.252C76.0578 81.372 76.6178 83.0613 76.6178 85.32V94H71.2978V86.188C71.2978 85.124 71.0924 84.34 70.6818 83.836C70.2898 83.332 69.7298 83.08 69.0018 83.08C68.1991 83.08 67.5551 83.36 67.0698 83.92C66.5844 84.48 66.3418 85.3293 66.3418 86.468V94H61.0218V86.188C61.0218 84.116 60.2564 83.08 58.7258 83.08C57.9044 83.08 57.2511 83.36 56.7658 83.92C56.2804 84.48 56.0378 85.3293 56.0378 86.468V94H50.7178V78.824H55.7858V80.42C56.3458 79.804 57.0084 79.3467 57.7738 79.048C58.5578 78.7307 59.4071 78.572 60.3218 78.572C61.3858 78.572 62.3378 78.768 63.1778 79.16C64.0178 79.552 64.6991 80.1493 65.2218 80.952C65.8191 80.1867 66.5751 79.5987 67.4898 79.188C68.4044 78.7773 69.4031 78.572 70.4858 78.572ZM86.4436 78.572C88.9636 78.572 90.8862 79.1507 92.2116 80.308C93.5369 81.4467 94.1996 83.2013 94.1996 85.572V94H89.2436V92.04C88.4782 93.5147 86.9849 94.252 84.7636 94.252C83.5876 94.252 82.5702 94.0467 81.7116 93.636C80.8529 93.2253 80.1996 92.6747 79.7516 91.984C79.3222 91.2747 79.1076 90.472 79.1076 89.576C79.1076 88.1387 79.6582 87.028 80.7596 86.244C81.8609 85.4413 83.5596 85.04 85.8556 85.04H88.8796C88.7862 83.4347 87.7129 82.632 85.6596 82.632C84.9316 82.632 84.1942 82.7533 83.4476 82.996C82.7009 83.22 82.0662 83.5373 81.5436 83.948L79.7516 80.336C80.5916 79.776 81.6089 79.3467 82.8036 79.048C84.0169 78.7307 85.2302 78.572 86.4436 78.572ZM86.2476 90.892C86.8636 90.892 87.4049 90.7427 87.8716 90.444C88.3382 90.1453 88.6742 89.7067 88.8796 89.128V87.812H86.5836C85.0342 87.812 84.2596 88.3253 84.2596 89.352C84.2596 89.8187 84.4369 90.192 84.7916 90.472C85.1462 90.752 85.6316 90.892 86.2476 90.892ZM105.532 94.252C103.852 94.252 102.35 93.916 101.024 93.244C99.699 92.572 98.663 91.6387 97.9164 90.444C97.1884 89.2493 96.8244 87.896 96.8244 86.384C96.8244 84.872 97.1884 83.528 97.9164 82.352C98.663 81.1573 99.699 80.2333 101.024 79.58C102.35 78.908 103.852 78.572 105.532 78.572C107.25 78.572 108.734 78.9453 109.984 79.692C111.235 80.42 112.122 81.4373 112.644 82.744L108.528 84.844C107.838 83.4813 106.83 82.8 105.504 82.8C104.552 82.8 103.759 83.1173 103.124 83.752C102.508 84.3867 102.2 85.264 102.2 86.384C102.2 87.5227 102.508 88.4187 103.124 89.072C103.759 89.7067 104.552 90.024 105.504 90.024C106.83 90.024 107.838 89.3427 108.528 87.98L112.644 90.08C112.122 91.3867 111.235 92.4133 109.984 93.16C108.734 93.888 107.25 94.252 105.532 94.252ZM124.477 78.572C126.362 78.572 127.874 79.132 129.013 80.252C130.17 81.372 130.749 83.0613 130.749 85.32V94H125.429V86.188C125.429 84.116 124.598 83.08 122.937 83.08C122.022 83.08 121.285 83.3787 120.725 83.976C120.183 84.5733 119.913 85.4693 119.913 86.664V94H114.593V73.224H119.913V80.224C120.491 79.6827 121.173 79.272 121.957 78.992C122.741 78.712 123.581 78.572 124.477 78.572ZM134.089 78.824H139.409V94H134.089V78.824ZM136.749 77.144C135.778 77.144 134.994 76.8733 134.397 76.332C133.8 75.7907 133.501 75.1187 133.501 74.316C133.501 73.5133 133.8 72.8413 134.397 72.3C134.994 71.7587 135.778 71.488 136.749 71.488C137.72 71.488 138.504 71.7493 139.101 72.272C139.698 72.776 139.997 73.4293 139.997 74.232C139.997 75.072 139.698 75.772 139.101 76.332C138.504 76.8733 137.72 77.144 136.749 77.144ZM152.75 78.572C154.636 78.572 156.148 79.132 157.286 80.252C158.444 81.372 159.022 83.0613 159.022 85.32V94H153.702V86.188C153.702 84.116 152.872 83.08 151.21 83.08C150.296 83.08 149.558 83.3787 148.998 83.976C148.457 84.5733 148.186 85.4693 148.186 86.664V94H142.866V78.824H147.934V80.476C148.532 79.86 149.241 79.3933 150.062 79.076C150.884 78.74 151.78 78.572 152.75 78.572ZM178.093 86.44C178.093 86.4773 178.065 86.916 178.009 87.756H166.977C167.201 88.54 167.63 89.1467 168.265 89.576C168.918 89.9867 169.73 90.192 170.701 90.192C171.429 90.192 172.054 90.0893 172.577 89.884C173.118 89.6787 173.66 89.3427 174.201 88.876L177.001 91.788C175.526 93.4307 173.37 94.252 170.533 94.252C168.76 94.252 167.201 93.916 165.857 93.244C164.513 92.572 163.468 91.6387 162.721 90.444C161.993 89.2493 161.629 87.896 161.629 86.384C161.629 84.8907 161.984 83.556 162.693 82.38C163.421 81.1853 164.42 80.252 165.689 79.58C166.958 78.908 168.386 78.572 169.973 78.572C171.485 78.572 172.857 78.8893 174.089 79.524C175.321 80.14 176.292 81.0453 177.001 82.24C177.729 83.416 178.093 84.816 178.093 86.44ZM170.001 82.352C169.18 82.352 168.489 82.5853 167.929 83.052C167.388 83.5187 167.042 84.1533 166.893 84.956H173.109C172.96 84.1533 172.605 83.5187 172.045 83.052C171.504 82.5853 170.822 82.352 170.001 82.352ZM188.694 73.224H194.014V94H188.694V73.224ZM212.984 86.44C212.984 86.4773 212.956 86.916 212.9 87.756H201.868C202.092 88.54 202.521 89.1467 203.156 89.576C203.809 89.9867 204.621 90.192 205.592 90.192C206.32 90.192 206.945 90.0893 207.468 89.884C208.009 89.6787 208.55 89.3427 209.092 88.876L211.892 91.788C210.417 93.4307 208.261 94.252 205.424 94.252C203.65 94.252 202.092 93.916 200.748 93.244C199.404 92.572 198.358 91.6387 197.612 90.444C196.884 89.2493 196.52 87.896 196.52 86.384C196.52 84.8907 196.874 83.556 197.584 82.38C198.312 81.1853 199.31 80.252 200.58 79.58C201.849 78.908 203.277 78.572 204.864 78.572C206.376 78.572 207.748 78.8893 208.98 79.524C210.212 80.14 211.182 81.0453 211.892 82.24C212.62 83.416 212.984 84.816 212.984 86.44ZM204.892 82.352C204.07 82.352 203.38 82.5853 202.82 83.052C202.278 83.5187 201.933 84.1533 201.784 84.956H208C207.85 84.1533 207.496 83.5187 206.936 83.052C206.394 82.5853 205.713 82.352 204.892 82.352ZM221.494 78.572C224.014 78.572 225.937 79.1507 227.262 80.308C228.588 81.4467 229.25 83.2013 229.25 85.572V94H224.294V92.04C223.529 93.5147 222.036 94.252 219.814 94.252C218.638 94.252 217.621 94.0467 216.762 93.636C215.904 93.2253 215.25 92.6747 214.802 91.984C214.373 91.2747 214.158 90.472 214.158 89.576C214.158 88.1387 214.709 87.028 215.81 86.244C216.912 85.4413 218.61 85.04 220.906 85.04H223.93C223.837 83.4347 222.764 82.632 220.71 82.632C219.982 82.632 219.245 82.7533 218.498 82.996C217.752 83.22 217.117 83.5373 216.594 83.948L214.802 80.336C215.642 79.776 216.66 79.3467 217.854 79.048C219.068 78.7307 220.281 78.572 221.494 78.572ZM221.298 90.892C221.914 90.892 222.456 90.7427 222.922 90.444C223.389 90.1453 223.725 89.7067 223.93 89.128V87.812H221.634C220.085 87.812 219.31 88.3253 219.31 89.352C219.31 89.8187 219.488 90.192 219.842 90.472C220.197 90.752 220.682 90.892 221.298 90.892ZM237.676 80.644C238.218 79.9533 238.918 79.44 239.776 79.104C240.654 78.7493 241.652 78.572 242.772 78.572V83.36C242.287 83.304 241.886 83.276 241.568 83.276C240.43 83.276 239.534 83.584 238.88 84.2C238.246 84.816 237.928 85.7587 237.928 87.028V94H232.608V78.824H237.676V80.644ZM254.852 78.572C256.737 78.572 258.249 79.132 259.388 80.252C260.545 81.372 261.124 83.0613 261.124 85.32V94H255.804V86.188C255.804 84.116 254.973 83.08 253.312 83.08C252.397 83.08 251.66 83.3787 251.1 83.976C250.558 84.5733 250.288 85.4693 250.288 86.664V94H244.968V78.824H250.036V80.476C250.633 79.86 251.342 79.3933 252.164 79.076C252.985 78.74 253.881 78.572 254.852 78.572ZM264.464 78.824H269.784V94H264.464V78.824ZM267.124 77.144C266.153 77.144 265.369 76.8733 264.772 76.332C264.175 75.7907 263.876 75.1187 263.876 74.316C263.876 73.5133 264.175 72.8413 264.772 72.3C265.369 71.7587 266.153 71.488 267.124 71.488C268.095 71.488 268.879 71.7493 269.476 72.272C270.073 72.776 270.372 73.4293 270.372 74.232C270.372 75.072 270.073 75.772 269.476 76.332C268.879 76.8733 268.095 77.144 267.124 77.144ZM283.125 78.572C285.011 78.572 286.523 79.132 287.661 80.252C288.819 81.372 289.397 83.0613 289.397 85.32V94H284.077V86.188C284.077 84.116 283.247 83.08 281.585 83.08C280.671 83.08 279.933 83.3787 279.373 83.976C278.832 84.5733 278.561 85.4693 278.561 86.664V94H273.241V78.824H278.309V80.476C278.907 79.86 279.616 79.3933 280.437 79.076C281.259 78.74 282.155 78.572 283.125 78.572ZM309.28 78.824V91.228C309.28 94.0467 308.515 96.156 306.984 97.556C305.453 98.9747 303.251 99.684 300.376 99.684C298.883 99.684 297.483 99.516 296.176 99.18C294.869 98.844 293.759 98.3493 292.844 97.696L294.776 93.972C295.392 94.476 296.167 94.868 297.1 95.148C298.052 95.4467 298.985 95.596 299.9 95.596C301.3 95.596 302.327 95.288 302.98 94.672C303.633 94.056 303.96 93.1413 303.96 91.928V91.424C302.933 92.6187 301.431 93.216 299.452 93.216C298.108 93.216 296.867 92.9173 295.728 92.32C294.589 91.704 293.684 90.8453 293.012 89.744C292.34 88.624 292.004 87.336 292.004 85.88C292.004 84.4427 292.34 83.1733 293.012 82.072C293.684 80.952 294.589 80.0933 295.728 79.496C296.867 78.88 298.108 78.572 299.452 78.572C301.617 78.572 303.204 79.272 304.212 80.672V78.824H309.28ZM300.712 88.988C301.664 88.988 302.448 88.6987 303.064 88.12C303.699 87.5413 304.016 86.7947 304.016 85.88C304.016 84.9653 303.708 84.228 303.092 83.668C302.476 83.0893 301.683 82.8 300.712 82.8C299.741 82.8 298.939 83.0893 298.304 83.668C297.688 84.228 297.38 84.9653 297.38 85.88C297.38 86.7947 297.697 87.5413 298.332 88.12C298.967 88.6987 299.76 88.988 300.712 88.988ZM30.4682 114.572C32.3349 114.572 33.8189 115.132 34.9202 116.252C36.0402 117.372 36.6002 119.061 36.6002 121.32V130H31.2802V122.188C31.2802 121.124 31.0749 120.34 30.6642 119.836C30.2722 119.332 29.7122 119.08 28.9842 119.08C28.1815 119.08 27.5375 119.36 27.0522 119.92C26.5669 120.48 26.3242 121.329 26.3242 122.468V130H21.0042V122.188C21.0042 120.116 20.2389 119.08 18.7082 119.08C17.8869 119.08 17.2335 119.36 16.7482 119.92C16.2629 120.48 16.0202 121.329 16.0202 122.468V130H10.7002V114.824H15.7682V116.42C16.3282 115.804 16.9909 115.347 17.7562 115.048C18.5402 114.731 19.3895 114.572 20.3042 114.572C21.3682 114.572 22.3202 114.768 23.1602 115.16C24.0002 115.552 24.6815 116.149 25.2042 116.952C25.8015 116.187 26.5575 115.599 27.4722 115.188C28.3869 114.777 29.3855 114.572 30.4682 114.572ZM47.7928 130.252C46.1688 130.252 44.7034 129.916 43.3968 129.244C42.0901 128.572 41.0634 127.639 40.3167 126.444C39.5888 125.249 39.2248 123.896 39.2248 122.384C39.2248 120.891 39.5888 119.547 40.3167 118.352C41.0634 117.157 42.0808 116.233 43.3688 115.58C44.6754 114.908 46.1501 114.572 47.7928 114.572C49.4354 114.572 50.9101 114.908 52.2168 115.58C53.5234 116.233 54.5408 117.157 55.2688 118.352C55.9968 119.528 56.3608 120.872 56.3608 122.384C56.3608 123.896 55.9968 125.249 55.2688 126.444C54.5408 127.639 53.5234 128.572 52.2168 129.244C50.9101 129.916 49.4354 130.252 47.7928 130.252ZM47.7928 126.024C48.7261 126.024 49.4914 125.707 50.0888 125.072C50.6861 124.419 50.9848 123.523 50.9848 122.384C50.9848 121.264 50.6861 120.387 50.0888 119.752C49.4914 119.117 48.7261 118.8 47.7928 118.8C46.8594 118.8 46.0941 119.117 45.4968 119.752C44.8994 120.387 44.6008 121.264 44.6008 122.384C44.6008 123.523 44.8994 124.419 45.4968 125.072C46.0941 125.707 46.8594 126.024 47.7928 126.024ZM74.9532 109.224V130H69.8852V128.488C68.8959 129.664 67.4119 130.252 65.4332 130.252C64.0519 130.252 62.7919 129.935 61.6532 129.3C60.5145 128.647 59.6092 127.723 58.9372 126.528C58.2839 125.333 57.9572 123.952 57.9572 122.384C57.9572 120.816 58.2839 119.444 58.9372 118.268C59.6092 117.073 60.5145 116.159 61.6532 115.524C62.7919 114.889 64.0519 114.572 65.4332 114.572C67.2439 114.572 68.6439 115.095 69.6332 116.14V109.224H74.9532ZM66.5532 126.024C67.4679 126.024 68.2239 125.707 68.8212 125.072C69.4185 124.419 69.7172 123.523 69.7172 122.384C69.7172 121.264 69.4185 120.387 68.8212 119.752C68.2425 119.117 67.4865 118.8 66.5532 118.8C65.6199 118.8 64.8545 119.117 64.2572 119.752C63.6599 120.387 63.3612 121.264 63.3612 122.384C63.3612 123.523 63.6599 124.419 64.2572 125.072C64.8545 125.707 65.6199 126.024 66.5532 126.024ZM93.888 122.44C93.888 122.477 93.86 122.916 93.804 123.756H82.772C82.996 124.54 83.4253 125.147 84.06 125.576C84.7133 125.987 85.5253 126.192 86.496 126.192C87.224 126.192 87.8493 126.089 88.372 125.884C88.9133 125.679 89.4546 125.343 89.996 124.876L92.796 127.788C91.3213 129.431 89.1653 130.252 86.328 130.252C84.5546 130.252 82.996 129.916 81.652 129.244C80.308 128.572 79.2626 127.639 78.516 126.444C77.788 125.249 77.424 123.896 77.424 122.384C77.424 120.891 77.7786 119.556 78.488 118.38C79.216 117.185 80.2146 116.252 81.484 115.58C82.7533 114.908 84.1813 114.572 85.768 114.572C87.28 114.572 88.652 114.889 89.884 115.524C91.116 116.14 92.0866 117.045 92.796 118.24C93.524 119.416 93.888 120.816 93.888 122.44ZM85.796 118.352C84.9746 118.352 84.284 118.585 83.724 119.052C83.1826 119.519 82.8373 120.153 82.688 120.956H88.904C88.7546 120.153 88.4 119.519 87.84 119.052C87.2986 118.585 86.6173 118.352 85.796 118.352ZM96.3408 109.224H101.661V130H96.3408V109.224ZM110.634 130.252C109.365 130.252 108.114 130.112 106.882 129.832C105.65 129.533 104.661 129.151 103.914 128.684L105.51 125.044C106.201 125.473 107.022 125.819 107.974 126.08C108.926 126.323 109.869 126.444 110.802 126.444C111.661 126.444 112.267 126.36 112.622 126.192C112.995 126.005 113.182 125.744 113.182 125.408C113.182 125.072 112.958 124.839 112.51 124.708C112.081 124.559 111.39 124.419 110.438 124.288C109.225 124.139 108.189 123.943 107.33 123.7C106.49 123.457 105.762 123.009 105.146 122.356C104.53 121.703 104.222 120.788 104.222 119.612C104.222 118.641 104.511 117.783 105.09 117.036C105.669 116.271 106.509 115.673 107.61 115.244C108.73 114.796 110.065 114.572 111.614 114.572C112.715 114.572 113.807 114.684 114.89 114.908C115.973 115.132 116.878 115.449 117.606 115.86L116.01 119.472C114.666 118.725 113.21 118.352 111.642 118.352C110.802 118.352 110.186 118.455 109.794 118.66C109.402 118.847 109.206 119.099 109.206 119.416C109.206 119.771 109.421 120.023 109.85 120.172C110.279 120.303 110.989 120.443 111.978 120.592C113.229 120.779 114.265 120.993 115.086 121.236C115.907 121.479 116.617 121.927 117.214 122.58C117.83 123.215 118.138 124.111 118.138 125.268C118.138 126.22 117.849 127.079 117.27 127.844C116.691 128.591 115.833 129.179 114.694 129.608C113.574 130.037 112.221 130.252 110.634 130.252ZM139.051 129.384C138.603 129.664 138.052 129.879 137.399 130.028C136.764 130.177 136.083 130.252 135.355 130.252C133.376 130.252 131.855 129.767 130.791 128.796C129.727 127.825 129.195 126.379 129.195 124.456V119.36H126.983V115.384H129.195V111.436H134.515V115.384H137.987V119.36H134.515V124.4C134.515 124.941 134.655 125.371 134.935 125.688C135.234 125.987 135.626 126.136 136.111 126.136C136.727 126.136 137.268 125.977 137.735 125.66L139.051 129.384ZM146.171 116.644C146.712 115.953 147.412 115.44 148.271 115.104C149.148 114.749 150.147 114.572 151.267 114.572V119.36C150.781 119.304 150.38 119.276 150.063 119.276C148.924 119.276 148.028 119.584 147.375 120.2C146.74 120.816 146.423 121.759 146.423 123.028V130H141.103V114.824H146.171V116.644ZM159.821 114.572C162.341 114.572 164.263 115.151 165.589 116.308C166.914 117.447 167.577 119.201 167.577 121.572V130H162.621V128.04C161.855 129.515 160.362 130.252 158.141 130.252C156.965 130.252 155.947 130.047 155.089 129.636C154.23 129.225 153.577 128.675 153.129 127.984C152.699 127.275 152.485 126.472 152.485 125.576C152.485 124.139 153.035 123.028 154.137 122.244C155.238 121.441 156.937 121.04 159.233 121.04H162.257C162.163 119.435 161.09 118.632 159.037 118.632C158.309 118.632 157.571 118.753 156.825 118.996C156.078 119.22 155.443 119.537 154.921 119.948L153.129 116.336C153.969 115.776 154.986 115.347 156.181 115.048C157.394 114.731 158.607 114.572 159.821 114.572ZM159.625 126.892C160.241 126.892 160.782 126.743 161.249 126.444C161.715 126.145 162.051 125.707 162.257 125.128V123.812H159.961C158.411 123.812 157.637 124.325 157.637 125.352C157.637 125.819 157.814 126.192 158.169 126.472C158.523 126.752 159.009 126.892 159.625 126.892ZM170.935 114.824H176.255V130H170.935V114.824ZM173.595 113.144C172.624 113.144 171.84 112.873 171.243 112.332C170.645 111.791 170.347 111.119 170.347 110.316C170.347 109.513 170.645 108.841 171.243 108.3C171.84 107.759 172.624 107.488 173.595 107.488C174.565 107.488 175.349 107.749 175.947 108.272C176.544 108.776 176.843 109.429 176.843 110.232C176.843 111.072 176.544 111.772 175.947 112.332C175.349 112.873 174.565 113.144 173.595 113.144ZM189.596 114.572C191.481 114.572 192.993 115.132 194.132 116.252C195.289 117.372 195.868 119.061 195.868 121.32V130H190.548V122.188C190.548 120.116 189.717 119.08 188.056 119.08C187.141 119.08 186.404 119.379 185.844 119.976C185.303 120.573 185.032 121.469 185.032 122.664V130H179.712V114.824H184.78V116.476C185.377 115.86 186.087 115.393 186.908 115.076C187.729 114.74 188.625 114.572 189.596 114.572ZM214.939 122.44C214.939 122.477 214.911 122.916 214.855 123.756H203.823C204.047 124.54 204.476 125.147 205.111 125.576C205.764 125.987 206.576 126.192 207.547 126.192C208.275 126.192 208.9 126.089 209.423 125.884C209.964 125.679 210.505 125.343 211.047 124.876L213.847 127.788C212.372 129.431 210.216 130.252 207.379 130.252C205.605 130.252 204.047 129.916 202.703 129.244C201.359 128.572 200.313 127.639 199.567 126.444C198.839 125.249 198.475 123.896 198.475 122.384C198.475 120.891 198.829 119.556 199.539 118.38C200.267 117.185 201.265 116.252 202.535 115.58C203.804 114.908 205.232 114.572 206.819 114.572C208.331 114.572 209.703 114.889 210.935 115.524C212.167 116.14 213.137 117.045 213.847 118.24C214.575 119.416 214.939 120.816 214.939 122.44ZM206.847 118.352C206.025 118.352 205.335 118.585 204.775 119.052C204.233 119.519 203.888 120.153 203.739 120.956H209.955C209.805 120.153 209.451 119.519 208.891 119.052C208.349 118.585 207.668 118.352 206.847 118.352ZM233.52 109.224V130H228.452V128.488C227.462 129.664 225.978 130.252 224 130.252C222.618 130.252 221.358 129.935 220.22 129.3C219.081 128.647 218.176 127.723 217.504 126.528C216.85 125.333 216.524 123.952 216.524 122.384C216.524 120.816 216.85 119.444 217.504 118.268C218.176 117.073 219.081 116.159 220.22 115.524C221.358 114.889 222.618 114.572 224 114.572C225.81 114.572 227.21 115.095 228.2 116.14V109.224H233.52ZM225.12 126.024C226.034 126.024 226.79 125.707 227.388 125.072C227.985 124.419 228.284 123.523 228.284 122.384C228.284 121.264 227.985 120.387 227.388 119.752C226.809 119.117 226.053 118.8 225.12 118.8C224.186 118.8 223.421 119.117 222.824 119.752C222.226 120.387 221.928 121.264 221.928 122.384C221.928 123.523 222.226 124.419 222.824 125.072C223.421 125.707 224.186 126.024 225.12 126.024ZM270.235 114.824L264.831 130H259.679L256.823 121.74L253.855 130H248.703L243.299 114.824H248.339L251.447 124.008L254.667 114.824H259.203L262.339 124.092L265.559 114.824H270.235ZM286.962 122.44C286.962 122.477 286.934 122.916 286.878 123.756H275.846C276.07 124.54 276.5 125.147 277.134 125.576C277.788 125.987 278.6 126.192 279.57 126.192C280.298 126.192 280.924 126.089 281.446 125.884C281.988 125.679 282.529 125.343 283.07 124.876L285.87 127.788C284.396 129.431 282.24 130.252 279.402 130.252C277.629 130.252 276.07 129.916 274.726 129.244C273.382 128.572 272.337 127.639 271.59 126.444C270.862 125.249 270.498 123.896 270.498 122.384C270.498 120.891 270.853 119.556 271.562 118.38C272.29 117.185 273.289 116.252 274.558 115.58C275.828 114.908 277.256 114.572 278.842 114.572C280.354 114.572 281.726 114.889 282.958 115.524C284.19 116.14 285.161 117.045 285.87 118.24C286.598 119.416 286.962 120.816 286.962 122.44ZM278.87 118.352C278.049 118.352 277.358 118.585 276.798 119.052C276.257 119.519 275.912 120.153 275.762 120.956H281.978C281.829 120.153 281.474 119.519 280.914 119.052C280.373 118.585 279.692 118.352 278.87 118.352ZM304.927 122.44C304.927 122.477 304.899 122.916 304.843 123.756H293.811C294.035 124.54 294.464 125.147 295.099 125.576C295.752 125.987 296.564 126.192 297.535 126.192C298.263 126.192 298.888 126.089 299.411 125.884C299.952 125.679 300.494 125.343 301.035 124.876L303.835 127.788C302.36 129.431 300.204 130.252 297.367 130.252C295.594 130.252 294.035 129.916 292.691 129.244C291.347 128.572 290.302 127.639 289.555 126.444C288.827 125.249 288.463 123.896 288.463 122.384C288.463 120.891 288.818 119.556 289.527 118.38C290.255 117.185 291.254 116.252 292.523 115.58C293.792 114.908 295.22 114.572 296.807 114.572C298.319 114.572 299.691 114.889 300.923 115.524C302.155 116.14 303.126 117.045 303.835 118.24C304.563 119.416 304.927 120.816 304.927 122.44ZM296.835 118.352C296.014 118.352 295.323 118.585 294.763 119.052C294.222 119.519 293.876 120.153 293.727 120.956H299.943C299.794 120.153 299.439 119.519 298.879 119.052C298.338 118.585 297.656 118.352 296.835 118.352ZM314.268 124.68L312.7 126.276V130H307.38V109.224H312.7V120.116L318.132 114.824H324.432L318.132 121.32L324.964 130H318.524L314.268 124.68ZM326.575 109.224H331.895V130H326.575V109.224ZM351.341 114.824L344.789 130.616C344.023 132.483 343.09 133.789 341.989 134.536C340.887 135.301 339.543 135.684 337.957 135.684C337.154 135.684 336.342 135.553 335.521 135.292C334.718 135.049 334.065 134.723 333.561 134.312L335.409 130.588C335.707 130.868 336.062 131.083 336.473 131.232C336.902 131.4 337.331 131.484 337.761 131.484C338.265 131.484 338.675 131.381 338.993 131.176C339.329 130.971 339.609 130.644 339.833 130.196L333.337 114.824H338.797L342.521 124.092L346.273 114.824H351.341Z" fill="black"></path><defs><linearGradient id="paint0_linear_5460_82139" x1="324" y1="58" x2="78.2641" y2="-12.7999" gradientUnits="userSpaceOnUse"><stop stop-color="#0033E6"></stop><stop offset="0.470534" stop-color="#E80183"></stop><stop offset="0.995" stop-color="#E82B01"></stop></linearGradient></defs></svg> 