<?xml version="1.0" encoding="UTF-8"?> <svg xmlns="http://www.w3.org/2000/svg" width="360" height="147" viewBox="0 0 360 147" fill="none"><path d="M97.3847 49.04C97.3847 53.4667 95.7847 57.3067 92.5847 60.56C89.438 63.76 84.8514 65.8133 78.8247 66.72V75.6H69.2247V67.04C65.2247 66.7733 61.438 66.1067 57.8647 65.04C54.2914 63.92 51.3314 62.56 48.9847 60.96L54.1847 49.28C56.6914 50.9333 59.598 52.2667 62.9047 53.28C66.2114 54.2933 69.4647 54.8 72.6647 54.8C78.7447 54.8 81.7847 53.28 81.7847 50.24C81.7847 48.64 80.9047 47.4667 79.1447 46.72C77.438 45.92 74.6647 45.0933 70.8247 44.24C66.6114 43.3333 63.0914 42.3733 60.2647 41.36C57.438 40.2933 55.0114 38.6133 52.9847 36.32C50.958 34.0267 49.9447 30.9333 49.9447 27.04C49.9447 22.4533 51.598 18.5333 54.9047 15.28C58.2114 11.9733 62.9847 9.94666 69.2247 9.2V0.399996H78.8247V9.04C81.8647 9.30667 84.7714 9.84 87.5447 10.64C90.3714 11.44 92.878 12.48 95.0647 13.76L90.1847 25.52C84.8514 22.64 79.678 21.2 74.6647 21.2C71.518 21.2 69.2247 21.68 67.7847 22.64C66.3447 23.5467 65.6247 24.7467 65.6247 26.24C65.6247 27.7333 66.478 28.8533 68.1847 29.6C69.8914 30.3467 72.638 31.12 76.4247 31.92C80.6914 32.8267 84.2114 33.8133 86.9847 34.88C89.8114 35.8933 92.238 37.5467 94.2647 39.84C96.3447 42.08 97.3847 45.1467 97.3847 49.04ZM122.782 30.4C130.622 30.4 136.408 32 140.142 35.2C143.928 38.4 145.822 42.6667 145.822 48C145.822 51.4667 144.915 54.6667 143.102 57.6C141.342 60.48 138.622 62.8 134.942 64.56C131.315 66.2667 126.808 67.12 121.422 67.12C117.475 67.12 113.555 66.64 109.662 65.68C105.822 64.72 102.515 63.36 99.7416 61.6L105.422 49.68C107.662 51.1733 110.115 52.32 112.782 53.12C115.502 53.92 118.222 54.32 120.942 54.32C123.662 54.32 125.822 53.8133 127.422 52.8C129.075 51.7333 129.902 50.2667 129.902 48.4C129.902 46.5333 129.102 45.12 127.502 44.16C125.902 43.2 123.075 42.72 119.022 42.72H103.822L106.622 10H142.302V22.24H119.742L119.022 30.4H122.782ZM175.135 67.12C170.335 67.12 166.069 65.9733 162.335 63.68C158.602 61.3867 155.669 58.0533 153.535 53.68C151.455 49.2533 150.415 44.0267 150.415 38C150.415 31.9733 151.455 26.7733 153.535 22.4C155.669 17.9733 158.602 14.6133 162.335 12.32C166.069 10.0267 170.335 8.88 175.135 8.88C179.882 8.88 184.122 10.0267 187.855 12.32C191.589 14.6133 194.495 17.9733 196.575 22.4C198.709 26.7733 199.775 31.9733 199.775 38C199.775 44.0267 198.709 49.2533 196.575 53.68C194.495 58.0533 191.589 61.3867 187.855 63.68C184.122 65.9733 179.882 67.12 175.135 67.12ZM175.135 54.16C177.802 54.16 179.909 52.88 181.455 50.32C183.055 47.7067 183.855 43.6 183.855 38C183.855 32.4 183.055 28.32 181.455 25.76C179.909 23.1467 177.802 21.84 175.135 21.84C172.415 21.84 170.255 23.1467 168.655 25.76C167.109 28.32 166.335 32.4 166.335 38C166.335 43.6 167.109 47.7067 168.655 50.32C170.255 52.88 172.415 54.16 175.135 54.16ZM251.101 36.8C254.301 37.92 256.808 39.68 258.621 42.08C260.434 44.4267 261.341 47.28 261.341 50.64C261.341 55.5467 259.368 59.3333 255.421 62C251.474 64.6667 245.768 66 238.301 66H208.061V10H236.701C243.848 10 249.288 11.3333 253.021 14C256.754 16.6133 258.621 20.16 258.621 24.64C258.621 27.3067 257.954 29.7067 256.621 31.84C255.341 33.92 253.501 35.5733 251.101 36.8ZM223.741 21.44V32.24H234.621C239.954 32.24 242.621 30.4267 242.621 26.8C242.621 23.2267 239.954 21.44 234.621 21.44H223.741ZM237.021 54.56C242.568 54.56 245.341 52.6667 245.341 48.88C245.341 45.0933 242.568 43.2 237.021 43.2H223.741V54.56H237.021ZM308.025 43.84H294.505V57.04H282.185V43.84H268.585V32.16H282.185V18.96H294.505V32.16H308.025V43.84Z" fill="url(#paint0_linear_5460_82147)"></path><path d="M47.3135 86.824H52.6335V102H47.3135V86.824ZM49.9735 85.144C49.0028 85.144 48.2188 84.8733 47.6215 84.332C47.0241 83.7907 46.7255 83.1187 46.7255 82.316C46.7255 81.5133 47.0241 80.8413 47.6215 80.3C48.2188 79.7587 49.0028 79.488 49.9735 79.488C50.9441 79.488 51.7281 79.7493 52.3255 80.272C52.9228 80.776 53.2215 81.4293 53.2215 82.232C53.2215 83.072 52.9228 83.772 52.3255 84.332C51.7281 84.8733 50.9441 85.144 49.9735 85.144ZM65.9748 86.572C67.8601 86.572 69.3721 87.132 70.5108 88.252C71.6681 89.372 72.2468 91.0613 72.2468 93.32V102H66.9268V94.188C66.9268 92.116 66.0961 91.08 64.4348 91.08C63.5201 91.08 62.7828 91.3787 62.2228 91.976C61.6815 92.5733 61.4108 93.4693 61.4108 94.664V102H56.0908V86.824H61.1588V88.476C61.7561 87.86 62.4655 87.3933 63.2868 87.076C64.1081 86.74 65.0041 86.572 65.9748 86.572ZM90.2033 86.572C92.7233 86.572 94.646 87.1507 95.9713 88.308C97.2967 89.4467 97.9593 91.2013 97.9593 93.572V102H93.0033V100.04C92.238 101.515 90.7447 102.252 88.5233 102.252C87.3473 102.252 86.33 102.047 85.4713 101.636C84.6127 101.225 83.9593 100.675 83.5113 99.984C83.082 99.2747 82.8673 98.472 82.8673 97.576C82.8673 96.1387 83.418 95.028 84.5193 94.244C85.6207 93.4413 87.3193 93.04 89.6153 93.04H92.6393C92.546 91.4347 91.4727 90.632 89.4193 90.632C88.6913 90.632 87.954 90.7533 87.2073 90.996C86.4607 91.22 85.826 91.5373 85.3033 91.948L83.5113 88.336C84.3513 87.776 85.3687 87.3467 86.5633 87.048C87.7767 86.7307 88.99 86.572 90.2033 86.572ZM90.0073 98.892C90.6233 98.892 91.1647 98.7427 91.6313 98.444C92.098 98.1453 92.434 97.7067 92.6393 97.128V95.812H90.3433C88.794 95.812 88.0193 96.3253 88.0193 97.352C88.0193 97.8187 88.1967 98.192 88.5513 98.472C88.906 98.752 89.3913 98.892 90.0073 98.892ZM111.201 86.572C113.087 86.572 114.599 87.132 115.737 88.252C116.895 89.372 117.473 91.0613 117.473 93.32V102H112.153V94.188C112.153 92.116 111.323 91.08 109.661 91.08C108.747 91.08 108.009 91.3787 107.449 91.976C106.908 92.5733 106.637 93.4693 106.637 94.664V102H101.317V86.824H106.385V88.476C106.983 87.86 107.692 87.3933 108.513 87.076C109.335 86.74 110.231 86.572 111.201 86.572ZM130.697 86.572C132.583 86.572 134.095 87.132 135.233 88.252C136.391 89.372 136.969 91.0613 136.969 93.32V102H131.649V94.188C131.649 92.116 130.819 91.08 129.157 91.08C128.243 91.08 127.505 91.3787 126.945 91.976C126.404 92.5733 126.133 93.4693 126.133 94.664V102H120.813V86.824H125.881V88.476C126.479 87.86 127.188 87.3933 128.009 87.076C128.831 86.74 129.727 86.572 130.697 86.572ZM156.27 86.824V102H151.202V100.376C150.642 100.992 149.97 101.459 149.186 101.776C148.402 102.093 147.571 102.252 146.694 102.252C144.734 102.252 143.166 101.673 141.99 100.516C140.832 99.3587 140.254 97.6227 140.254 95.308V86.824H145.574V94.44C145.574 95.5787 145.788 96.4093 146.218 96.932C146.647 97.4547 147.272 97.716 148.094 97.716C148.934 97.716 149.615 97.4267 150.138 96.848C150.679 96.2507 150.95 95.3453 150.95 94.132V86.824H156.27ZM166.164 86.572C168.684 86.572 170.607 87.1507 171.932 88.308C173.258 89.4467 173.92 91.2013 173.92 93.572V102H168.964V100.04C168.199 101.515 166.706 102.252 164.484 102.252C163.308 102.252 162.291 102.047 161.432 101.636C160.574 101.225 159.92 100.675 159.472 99.984C159.043 99.2747 158.828 98.472 158.828 97.576C158.828 96.1387 159.379 95.028 160.48 94.244C161.582 93.4413 163.28 93.04 165.576 93.04H168.6C168.507 91.4347 167.434 90.632 165.38 90.632C164.652 90.632 163.915 90.7533 163.168 90.996C162.422 91.22 161.787 91.5373 161.264 91.948L159.472 88.336C160.312 87.776 161.33 87.3467 162.524 87.048C163.738 86.7307 164.951 86.572 166.164 86.572ZM165.968 98.892C166.584 98.892 167.126 98.7427 167.592 98.444C168.059 98.1453 168.395 97.7067 168.6 97.128V95.812H166.304C164.755 95.812 163.98 96.3253 163.98 97.352C163.98 97.8187 164.158 98.192 164.512 98.472C164.867 98.752 165.352 98.892 165.968 98.892ZM177.278 81.224H182.598V102H177.278V81.224ZM200.672 86.572C203.192 86.572 205.115 87.1507 206.44 88.308C207.765 89.4467 208.428 91.2013 208.428 93.572V102H203.472V100.04C202.707 101.515 201.213 102.252 198.992 102.252C197.816 102.252 196.799 102.047 195.94 101.636C195.081 101.225 194.428 100.675 193.98 99.984C193.551 99.2747 193.336 98.472 193.336 97.576C193.336 96.1387 193.887 95.028 194.988 94.244C196.089 93.4413 197.788 93.04 200.084 93.04H203.108C203.015 91.4347 201.941 90.632 199.888 90.632C199.16 90.632 198.423 90.7533 197.676 90.996C196.929 91.22 196.295 91.5373 195.772 91.948L193.98 88.336C194.82 87.776 195.837 87.3467 197.032 87.048C198.245 86.7307 199.459 86.572 200.672 86.572ZM200.476 98.892C201.092 98.892 201.633 98.7427 202.1 98.444C202.567 98.1453 202.903 97.7067 203.108 97.128V95.812H200.812C199.263 95.812 198.488 96.3253 198.488 97.352C198.488 97.8187 198.665 98.192 199.02 98.472C199.375 98.752 199.86 98.892 200.476 98.892ZM217.302 102.252C216.033 102.252 214.782 102.112 213.55 101.832C212.318 101.533 211.329 101.151 210.582 100.684L212.178 97.044C212.869 97.4733 213.69 97.8187 214.642 98.08C215.594 98.3227 216.537 98.444 217.47 98.444C218.329 98.444 218.935 98.36 219.29 98.192C219.663 98.0053 219.85 97.744 219.85 97.408C219.85 97.072 219.626 96.8387 219.178 96.708C218.749 96.5587 218.058 96.4187 217.106 96.288C215.893 96.1387 214.857 95.9427 213.998 95.7C213.158 95.4573 212.43 95.0093 211.814 94.356C211.198 93.7027 210.89 92.788 210.89 91.612C210.89 90.6413 211.179 89.7827 211.758 89.036C212.337 88.2707 213.177 87.6733 214.278 87.244C215.398 86.796 216.733 86.572 218.282 86.572C219.383 86.572 220.475 86.684 221.558 86.908C222.641 87.132 223.546 87.4493 224.274 87.86L222.678 91.472C221.334 90.7253 219.878 90.352 218.31 90.352C217.47 90.352 216.854 90.4547 216.462 90.66C216.07 90.8467 215.874 91.0987 215.874 91.416C215.874 91.7707 216.089 92.0227 216.518 92.172C216.947 92.3027 217.657 92.4427 218.646 92.592C219.897 92.7787 220.933 92.9933 221.754 93.236C222.575 93.4787 223.285 93.9267 223.882 94.58C224.498 95.2147 224.806 96.1107 224.806 97.268C224.806 98.22 224.517 99.0787 223.938 99.844C223.359 100.591 222.501 101.179 221.362 101.608C220.242 102.037 218.889 102.252 217.302 102.252ZM232.615 102.252C231.345 102.252 230.095 102.112 228.863 101.832C227.631 101.533 226.641 101.151 225.895 100.684L227.491 97.044C228.181 97.4733 229.003 97.8187 229.955 98.08C230.907 98.3227 231.849 98.444 232.783 98.444C233.641 98.444 234.248 98.36 234.603 98.192C234.976 98.0053 235.163 97.744 235.163 97.408C235.163 97.072 234.939 96.8387 234.491 96.708C234.061 96.5587 233.371 96.4187 232.419 96.288C231.205 96.1387 230.169 95.9427 229.311 95.7C228.471 95.4573 227.743 95.0093 227.127 94.356C226.511 93.7027 226.203 92.788 226.203 91.612C226.203 90.6413 226.492 89.7827 227.071 89.036C227.649 88.2707 228.489 87.6733 229.591 87.244C230.711 86.796 232.045 86.572 233.595 86.572C234.696 86.572 235.788 86.684 236.871 86.908C237.953 87.132 238.859 87.4493 239.587 87.86L237.991 91.472C236.647 90.7253 235.191 90.352 233.623 90.352C232.783 90.352 232.167 90.4547 231.775 90.66C231.383 90.8467 231.187 91.0987 231.187 91.416C231.187 91.7707 231.401 92.0227 231.831 92.172C232.26 92.3027 232.969 92.4427 233.959 92.592C235.209 92.7787 236.245 92.9933 237.067 93.236C237.888 93.4787 238.597 93.9267 239.195 94.58C239.811 95.2147 240.119 96.1107 240.119 97.268C240.119 98.22 239.829 99.0787 239.251 99.844C238.672 100.591 237.813 101.179 236.675 101.608C235.555 102.037 234.201 102.252 232.615 102.252ZM242.411 86.824H247.731V102H242.411V86.824ZM245.071 85.144C244.1 85.144 243.316 84.8733 242.719 84.332C242.122 83.7907 241.823 83.1187 241.823 82.316C241.823 81.5133 242.122 80.8413 242.719 80.3C243.316 79.7587 244.1 79.488 245.071 79.488C246.042 79.488 246.826 79.7493 247.423 80.272C248.02 80.776 248.319 81.4293 248.319 82.232C248.319 83.072 248.02 83.772 247.423 84.332C246.826 84.8733 246.042 85.144 245.071 85.144ZM256.704 102.252C255.435 102.252 254.184 102.112 252.952 101.832C251.72 101.533 250.731 101.151 249.984 100.684L251.58 97.044C252.271 97.4733 253.092 97.8187 254.044 98.08C254.996 98.3227 255.939 98.444 256.872 98.444C257.731 98.444 258.338 98.36 258.692 98.192C259.066 98.0053 259.252 97.744 259.252 97.408C259.252 97.072 259.028 96.8387 258.58 96.708C258.151 96.5587 257.46 96.4187 256.508 96.288C255.295 96.1387 254.259 95.9427 253.4 95.7C252.56 95.4573 251.832 95.0093 251.216 94.356C250.6 93.7027 250.292 92.788 250.292 91.612C250.292 90.6413 250.582 89.7827 251.16 89.036C251.739 88.2707 252.579 87.6733 253.68 87.244C254.8 86.796 256.135 86.572 257.684 86.572C258.786 86.572 259.878 86.684 260.96 86.908C262.043 87.132 262.948 87.4493 263.676 87.86L262.08 91.472C260.736 90.7253 259.28 90.352 257.712 90.352C256.872 90.352 256.256 90.4547 255.864 90.66C255.472 90.8467 255.276 91.0987 255.276 91.416C255.276 91.7707 255.491 92.0227 255.92 92.172C256.35 92.3027 257.059 92.4427 258.048 92.592C259.299 92.7787 260.335 92.9933 261.156 93.236C261.978 93.4787 262.687 93.9267 263.284 94.58C263.9 95.2147 264.208 96.1107 264.208 97.268C264.208 98.22 263.919 99.0787 263.34 99.844C262.762 100.591 261.903 101.179 260.764 101.608C259.644 102.037 258.291 102.252 256.704 102.252ZM276.973 101.384C276.525 101.664 275.974 101.879 275.321 102.028C274.686 102.177 274.005 102.252 273.277 102.252C271.298 102.252 269.777 101.767 268.713 100.796C267.649 99.8253 267.117 98.3787 267.117 96.456V91.36H264.905V87.384H267.117V83.436H272.437V87.384H275.909V91.36H272.437V96.4C272.437 96.9413 272.577 97.3707 272.857 97.688C273.156 97.9867 273.548 98.136 274.033 98.136C274.649 98.136 275.19 97.9773 275.657 97.66L276.973 101.384ZM294.099 94.44C294.099 94.4773 294.071 94.916 294.015 95.756H282.983C283.207 96.54 283.636 97.1467 284.271 97.576C284.924 97.9867 285.736 98.192 286.707 98.192C287.435 98.192 288.06 98.0893 288.583 97.884C289.124 97.6787 289.666 97.3427 290.207 96.876L293.007 99.788C291.532 101.431 289.376 102.252 286.539 102.252C284.766 102.252 283.207 101.916 281.863 101.244C280.519 100.572 279.474 99.6387 278.727 98.444C277.999 97.2493 277.635 95.896 277.635 94.384C277.635 92.8907 277.99 91.556 278.699 90.38C279.427 89.1853 280.426 88.252 281.695 87.58C282.964 86.908 284.392 86.572 285.979 86.572C287.491 86.572 288.863 86.8893 290.095 87.524C291.327 88.14 292.298 89.0453 293.007 90.24C293.735 91.416 294.099 92.816 294.099 94.44ZM286.007 90.352C285.186 90.352 284.495 90.5853 283.935 91.052C283.394 91.5187 283.048 92.1533 282.899 92.956H289.115C288.966 92.1533 288.611 91.5187 288.051 91.052C287.51 90.5853 286.828 90.352 286.007 90.352ZM312.68 81.224V102H307.612V100.488C306.622 101.664 305.138 102.252 303.16 102.252C301.778 102.252 300.518 101.935 299.38 101.3C298.241 100.647 297.336 99.7227 296.664 98.528C296.01 97.3333 295.684 95.952 295.684 94.384C295.684 92.816 296.01 91.444 296.664 90.268C297.336 89.0733 298.241 88.1587 299.38 87.524C300.518 86.8893 301.778 86.572 303.16 86.572C304.97 86.572 306.37 87.0947 307.36 88.14V81.224H312.68ZM304.28 98.024C305.194 98.024 305.95 97.7067 306.548 97.072C307.145 96.4187 307.444 95.5227 307.444 94.384C307.444 93.264 307.145 92.3867 306.548 91.752C305.969 91.1173 305.213 90.8 304.28 90.8C303.346 90.8 302.581 91.1173 301.984 91.752C301.386 92.3867 301.088 93.264 301.088 94.384C301.088 95.5227 301.386 96.4187 301.984 97.072C302.581 97.7067 303.346 98.024 304.28 98.024ZM92.3479 134.192H84.0599L82.5199 138H76.8639L85.5159 118.4H90.9759L99.6559 138H93.8879L92.3479 134.192ZM90.7239 130.104L88.2039 123.832L85.6839 130.104H90.7239ZM120.744 122.572C122.61 122.572 124.094 123.132 125.196 124.252C126.316 125.372 126.876 127.061 126.876 129.32V138H121.556V130.188C121.556 129.124 121.35 128.34 120.94 127.836C120.548 127.332 119.988 127.08 119.26 127.08C118.457 127.08 117.813 127.36 117.328 127.92C116.842 128.48 116.6 129.329 116.6 130.468V138H111.28V130.188C111.28 128.116 110.514 127.08 108.984 127.08C108.162 127.08 107.509 127.36 107.024 127.92C106.538 128.48 106.296 129.329 106.296 130.468V138H100.976V122.824H106.044V124.42C106.604 123.804 107.266 123.347 108.032 123.048C108.816 122.731 109.665 122.572 110.58 122.572C111.644 122.572 112.596 122.768 113.436 123.16C114.276 123.552 114.957 124.149 115.48 124.952C116.077 124.187 116.833 123.599 117.748 123.188C118.662 122.777 119.661 122.572 120.744 122.572ZM136.701 122.572C139.221 122.572 141.144 123.151 142.469 124.308C143.795 125.447 144.457 127.201 144.457 129.572V138H139.501V136.04C138.736 137.515 137.243 138.252 135.021 138.252C133.845 138.252 132.828 138.047 131.969 137.636C131.111 137.225 130.457 136.675 130.009 135.984C129.58 135.275 129.365 134.472 129.365 133.576C129.365 132.139 129.916 131.028 131.017 130.244C132.119 129.441 133.817 129.04 136.113 129.04H139.137C139.044 127.435 137.971 126.632 135.917 126.632C135.189 126.632 134.452 126.753 133.705 126.996C132.959 127.22 132.324 127.537 131.801 127.948L130.009 124.336C130.849 123.776 131.867 123.347 133.061 123.048C134.275 122.731 135.488 122.572 136.701 122.572ZM136.505 134.892C137.121 134.892 137.663 134.743 138.129 134.444C138.596 134.145 138.932 133.707 139.137 133.128V131.812H136.841C135.292 131.812 134.517 132.325 134.517 133.352C134.517 133.819 134.695 134.192 135.049 134.472C135.404 134.752 135.889 134.892 136.505 134.892ZM161.031 134.024V138H147.031V134.864L154.059 126.772H147.227V122.824H160.751V125.932L153.723 134.024H161.031ZM170.826 138.252C169.202 138.252 167.737 137.916 166.43 137.244C165.123 136.572 164.097 135.639 163.35 134.444C162.622 133.249 162.258 131.896 162.258 130.384C162.258 128.891 162.622 127.547 163.35 126.352C164.097 125.157 165.114 124.233 166.402 123.58C167.709 122.908 169.183 122.572 170.826 122.572C172.469 122.572 173.943 122.908 175.25 123.58C176.557 124.233 177.574 125.157 178.302 126.352C179.03 127.528 179.394 128.872 179.394 130.384C179.394 131.896 179.03 133.249 178.302 134.444C177.574 135.639 176.557 136.572 175.25 137.244C173.943 137.916 172.469 138.252 170.826 138.252ZM170.826 134.024C171.759 134.024 172.525 133.707 173.122 133.072C173.719 132.419 174.018 131.523 174.018 130.384C174.018 129.264 173.719 128.387 173.122 127.752C172.525 127.117 171.759 126.8 170.826 126.8C169.893 126.8 169.127 127.117 168.53 127.752C167.933 128.387 167.634 129.264 167.634 130.384C167.634 131.523 167.933 132.419 168.53 133.072C169.127 133.707 169.893 134.024 170.826 134.024ZM191.742 122.572C193.628 122.572 195.14 123.132 196.278 124.252C197.436 125.372 198.014 127.061 198.014 129.32V138H192.694V130.188C192.694 128.116 191.864 127.08 190.202 127.08C189.288 127.08 188.55 127.379 187.99 127.976C187.449 128.573 187.178 129.469 187.178 130.664V138H181.858V122.824H186.926V124.476C187.524 123.86 188.233 123.393 189.054 123.076C189.876 122.74 190.772 122.572 191.742 122.572ZM215.019 138.252C213.75 138.252 212.499 138.112 211.267 137.832C210.035 137.533 209.046 137.151 208.299 136.684L209.895 133.044C210.586 133.473 211.407 133.819 212.359 134.08C213.311 134.323 214.254 134.444 215.187 134.444C216.046 134.444 216.652 134.36 217.007 134.192C217.38 134.005 217.567 133.744 217.567 133.408C217.567 133.072 217.343 132.839 216.895 132.708C216.466 132.559 215.775 132.419 214.823 132.288C213.61 132.139 212.574 131.943 211.715 131.7C210.875 131.457 210.147 131.009 209.531 130.356C208.915 129.703 208.607 128.788 208.607 127.612C208.607 126.641 208.896 125.783 209.475 125.036C210.054 124.271 210.894 123.673 211.995 123.244C213.115 122.796 214.45 122.572 215.999 122.572C217.1 122.572 218.192 122.684 219.275 122.908C220.358 123.132 221.263 123.449 221.991 123.86L220.395 127.472C219.051 126.725 217.595 126.352 216.027 126.352C215.187 126.352 214.571 126.455 214.179 126.66C213.787 126.847 213.591 127.099 213.591 127.416C213.591 127.771 213.806 128.023 214.235 128.172C214.664 128.303 215.374 128.443 216.363 128.592C217.614 128.779 218.65 128.993 219.471 129.236C220.292 129.479 221.002 129.927 221.599 130.58C222.215 131.215 222.523 132.111 222.523 133.268C222.523 134.22 222.234 135.079 221.655 135.844C221.076 136.591 220.218 137.179 219.079 137.608C217.959 138.037 216.606 138.252 215.019 138.252ZM231.283 122.572C233.803 122.572 235.726 123.151 237.051 124.308C238.377 125.447 239.039 127.201 239.039 129.572V138H234.083V136.04C233.318 137.515 231.825 138.252 229.603 138.252C228.427 138.252 227.41 138.047 226.551 137.636C225.693 137.225 225.039 136.675 224.591 135.984C224.162 135.275 223.947 134.472 223.947 133.576C223.947 132.139 224.498 131.028 225.599 130.244C226.701 129.441 228.399 129.04 230.695 129.04H233.719C233.626 127.435 232.553 126.632 230.499 126.632C229.771 126.632 229.034 126.753 228.287 126.996C227.541 127.22 226.906 127.537 226.383 127.948L224.591 124.336C225.431 123.776 226.449 123.347 227.643 123.048C228.857 122.731 230.07 122.572 231.283 122.572ZM231.087 134.892C231.703 134.892 232.245 134.743 232.711 134.444C233.178 134.145 233.514 133.707 233.719 133.128V131.812H231.423C229.874 131.812 229.099 132.325 229.099 133.352C229.099 133.819 229.277 134.192 229.631 134.472C229.986 134.752 230.471 134.892 231.087 134.892ZM242.397 117.224H247.717V138H242.397V117.224ZM266.687 130.44C266.687 130.477 266.659 130.916 266.603 131.756H255.571C255.795 132.54 256.224 133.147 256.859 133.576C257.512 133.987 258.324 134.192 259.295 134.192C260.023 134.192 260.648 134.089 261.171 133.884C261.712 133.679 262.253 133.343 262.795 132.876L265.595 135.788C264.12 137.431 261.964 138.252 259.127 138.252C257.353 138.252 255.795 137.916 254.451 137.244C253.107 136.572 252.061 135.639 251.315 134.444C250.587 133.249 250.223 131.896 250.223 130.384C250.223 128.891 250.577 127.556 251.287 126.38C252.015 125.185 253.013 124.252 254.283 123.58C255.552 122.908 256.98 122.572 258.567 122.572C260.079 122.572 261.451 122.889 262.683 123.524C263.915 124.14 264.885 125.045 265.595 126.24C266.323 127.416 266.687 128.816 266.687 130.44ZM258.595 126.352C257.773 126.352 257.083 126.585 256.523 127.052C255.981 127.519 255.636 128.153 255.487 128.956H261.703C261.553 128.153 261.199 127.519 260.639 127.052C260.097 126.585 259.416 126.352 258.595 126.352ZM274.656 138.252C273.386 138.252 272.136 138.112 270.904 137.832C269.672 137.533 268.682 137.151 267.936 136.684L269.532 133.044C270.222 133.473 271.044 133.819 271.996 134.08C272.948 134.323 273.89 134.444 274.824 134.444C275.682 134.444 276.289 134.36 276.644 134.192C277.017 134.005 277.204 133.744 277.204 133.408C277.204 133.072 276.98 132.839 276.532 132.708C276.102 132.559 275.412 132.419 274.46 132.288C273.246 132.139 272.21 131.943 271.352 131.7C270.512 131.457 269.784 131.009 269.168 130.356C268.552 129.703 268.244 128.788 268.244 127.612C268.244 126.641 268.533 125.783 269.112 125.036C269.69 124.271 270.53 123.673 271.632 123.244C272.752 122.796 274.086 122.572 275.636 122.572C276.737 122.572 277.829 122.684 278.912 122.908C279.994 123.132 280.9 123.449 281.628 123.86L280.032 127.472C278.688 126.725 277.232 126.352 275.664 126.352C274.824 126.352 274.208 126.455 273.816 126.66C273.424 126.847 273.228 127.099 273.228 127.416C273.228 127.771 273.442 128.023 273.872 128.172C274.301 128.303 275.01 128.443 276 128.592C277.25 128.779 278.286 128.993 279.108 129.236C279.929 129.479 280.638 129.927 281.236 130.58C281.852 131.215 282.16 132.111 282.16 133.268C282.16 134.22 281.87 135.079 281.292 135.844C280.713 136.591 279.854 137.179 278.716 137.608C277.596 138.037 276.242 138.252 274.656 138.252Z" fill="black"></path><defs><linearGradient id="paint0_linear_5460_82147" x1="226" y1="55" x2="43.8403" y2="-41.9709" gradientUnits="userSpaceOnUse"><stop stop-color="#F57706"></stop><stop offset="1" stop-color="#FAC800"></stop></linearGradient></defs></svg> 