<?xml version="1.0" encoding="UTF-8"?> <svg xmlns="http://www.w3.org/2000/svg" width="244" height="34" viewBox="0 0 244 34" fill="none"><rect y="0.93457" width="244" height="33" rx="16.5" fill="white"></rect><path d="M48.016 22.0306C47.176 22.0306 46.416 21.8466 45.736 21.4786C45.064 21.1026 44.536 20.5906 44.152 19.9426C43.768 19.2866 43.576 18.5506 43.576 17.7346C43.576 16.9186 43.768 16.1866 44.152 15.5386C44.536 14.8826 45.068 14.3706 45.748 14.0026C46.428 13.6266 47.188 13.4386 48.028 13.4386C48.684 13.4386 49.284 13.5506 49.828 13.7746C50.372 13.9906 50.836 14.3146 51.22 14.7466L50.44 15.5026C49.808 14.8386 49.02 14.5066 48.076 14.5066C47.452 14.5066 46.888 14.6466 46.384 14.9266C45.88 15.2066 45.484 15.5946 45.196 16.0906C44.916 16.5786 44.776 17.1266 44.776 17.7346C44.776 18.3426 44.916 18.8946 45.196 19.3906C45.484 19.8786 45.88 20.2626 46.384 20.5426C46.888 20.8226 47.452 20.9626 48.076 20.9626C49.012 20.9626 49.8 20.6266 50.44 19.9546L51.22 20.7106C50.836 21.1426 50.368 21.4706 49.816 21.6946C49.272 21.9186 48.672 22.0306 48.016 22.0306ZM58.5481 22.0306C57.7001 22.0306 56.9361 21.8466 56.2561 21.4786C55.5761 21.1026 55.0401 20.5866 54.6481 19.9306C54.2641 19.2746 54.0721 18.5426 54.0721 17.7346C54.0721 16.9266 54.2641 16.1946 54.6481 15.5386C55.0401 14.8826 55.5761 14.3706 56.2561 14.0026C56.9361 13.6266 57.7001 13.4386 58.5481 13.4386C59.3881 13.4386 60.1481 13.6266 60.8281 14.0026C61.5081 14.3706 62.0401 14.8826 62.4241 15.5386C62.8081 16.1866 63.0001 16.9186 63.0001 17.7346C63.0001 18.5506 62.8081 19.2866 62.4241 19.9426C62.0401 20.5906 61.5081 21.1026 60.8281 21.4786C60.1481 21.8466 59.3881 22.0306 58.5481 22.0306ZM58.5481 20.9626C59.1641 20.9626 59.7161 20.8226 60.2041 20.5426C60.7001 20.2626 61.0881 19.8786 61.3681 19.3906C61.6561 18.8946 61.8001 18.3426 61.8001 17.7346C61.8001 17.1266 61.6561 16.5786 61.3681 16.0906C61.0881 15.5946 60.7001 15.2066 60.2041 14.9266C59.7161 14.6466 59.1641 14.5066 58.5481 14.5066C57.9321 14.5066 57.3721 14.6466 56.8681 14.9266C56.3721 15.2066 55.9801 15.5946 55.6921 16.0906C55.4121 16.5786 55.2721 17.1266 55.2721 17.7346C55.2721 18.3426 55.4121 18.8946 55.6921 19.3906C55.9801 19.8786 56.3721 20.2626 56.8681 20.5426C57.3721 20.8226 57.9321 20.9626 58.5481 20.9626ZM74.6222 21.9346L74.6102 15.8146L71.5742 20.9146H71.0222L67.9862 15.8506V21.9346H66.8342V13.5346H67.8182L71.3222 19.4386L74.7782 13.5346H75.7622L75.7742 21.9346H74.6222ZM83.5712 13.5346C84.6592 13.5346 85.5152 13.7946 86.1392 14.3146C86.7632 14.8346 87.0752 15.5506 87.0752 16.4626C87.0752 17.3746 86.7632 18.0906 86.1392 18.6106C85.5152 19.1306 84.6592 19.3906 83.5712 19.3906H81.4952V21.9346H80.2952V13.5346H83.5712ZM83.5352 18.3466C84.2952 18.3466 84.8752 18.1866 85.2752 17.8666C85.6752 17.5386 85.8752 17.0706 85.8752 16.4626C85.8752 15.8546 85.6752 15.3906 85.2752 15.0706C84.8752 14.7426 84.2952 14.5786 83.5352 14.5786H81.4952V18.3466H83.5352ZM96.9341 20.8906V21.9346H90.8381V13.5346H96.7661V14.5786H92.0381V17.1586H96.2501V18.1786H92.0381V20.8906H96.9341ZM102.545 14.5786H99.6652V13.5346H106.613V14.5786H103.733V21.9346H102.545V14.5786ZM109.92 13.5346H111.12V21.9346H109.92V13.5346ZM117.303 14.5786H114.423V13.5346H121.371V14.5786H118.491V21.9346H117.303V14.5786ZM124.678 13.5346H125.878V21.9346H124.678V13.5346ZM137.607 13.5346L133.923 21.9346H132.735L129.039 13.5346H130.335L133.359 20.4346L136.407 13.5346H137.607ZM146.774 20.8906V21.9346H140.678V13.5346H146.606V14.5786H141.878V17.1586H146.09V18.1786H141.878V20.8906H146.774ZM155.94 13.5346H157.14V21.9346H155.94V13.5346ZM168.879 13.5346V21.9346H167.895L162.855 15.6706V21.9346H161.655V13.5346H162.639L167.679 19.7986V13.5346H168.879ZM175.841 22.0306C175.209 22.0306 174.597 21.9346 174.005 21.7426C173.421 21.5426 172.961 21.2866 172.625 20.9746L173.069 20.0386C173.389 20.3266 173.797 20.5626 174.293 20.7466C174.797 20.9226 175.313 21.0106 175.841 21.0106C176.537 21.0106 177.057 20.8946 177.401 20.6626C177.745 20.4226 177.917 20.1066 177.917 19.7146C177.917 19.4266 177.821 19.1946 177.629 19.0186C177.445 18.8346 177.213 18.6946 176.933 18.5986C176.661 18.5026 176.273 18.3946 175.769 18.2746C175.137 18.1226 174.625 17.9706 174.233 17.8186C173.849 17.6666 173.517 17.4346 173.237 17.1226C172.965 16.8026 172.829 16.3746 172.829 15.8386C172.829 15.3906 172.945 14.9866 173.177 14.6266C173.417 14.2666 173.777 13.9786 174.257 13.7626C174.737 13.5466 175.333 13.4386 176.045 13.4386C176.541 13.4386 177.029 13.5026 177.509 13.6306C177.989 13.7586 178.401 13.9426 178.745 14.1826L178.349 15.1426C177.997 14.9186 177.621 14.7506 177.221 14.6386C176.821 14.5186 176.429 14.4586 176.045 14.4586C175.365 14.4586 174.853 14.5826 174.509 14.8306C174.173 15.0786 174.005 15.3986 174.005 15.7906C174.005 16.0786 174.101 16.3146 174.293 16.4986C174.485 16.6746 174.721 16.8146 175.001 16.9186C175.289 17.0146 175.677 17.1186 176.165 17.2306C176.797 17.3826 177.305 17.5346 177.689 17.6866C178.073 17.8386 178.401 18.0706 178.673 18.3826C178.953 18.6946 179.093 19.1146 179.093 19.6426C179.093 20.0826 178.973 20.4866 178.733 20.8546C178.493 21.2146 178.129 21.5026 177.641 21.7186C177.153 21.9266 176.553 22.0306 175.841 22.0306ZM182.846 13.5346H184.046V21.9346H182.846V13.5346ZM194.381 17.6866H195.533V20.9626C195.117 21.3066 194.633 21.5706 194.081 21.7546C193.529 21.9386 192.953 22.0306 192.353 22.0306C191.505 22.0306 190.741 21.8466 190.061 21.4786C189.381 21.1026 188.845 20.5906 188.453 19.9426C188.069 19.2866 187.877 18.5506 187.877 17.7346C187.877 16.9186 188.069 16.1826 188.453 15.5266C188.845 14.8706 189.381 14.3586 190.061 13.9906C190.749 13.6226 191.521 13.4386 192.377 13.4386C193.049 13.4386 193.657 13.5506 194.201 13.7746C194.753 13.9906 195.221 14.3106 195.605 14.7346L194.861 15.4786C194.189 14.8306 193.377 14.5066 192.425 14.5066C191.785 14.5066 191.209 14.6466 190.697 14.9266C190.193 15.1986 189.797 15.5826 189.509 16.0786C189.221 16.5666 189.077 17.1186 189.077 17.7346C189.077 18.3426 189.221 18.8946 189.509 19.3906C189.797 19.8786 190.193 20.2626 190.697 20.5426C191.209 20.8226 191.781 20.9626 192.413 20.9626C193.165 20.9626 193.821 20.7826 194.381 20.4226V17.6866ZM207.054 13.5346V21.9346H205.854V18.1906H201.03V21.9346H199.83V13.5346H201.03V17.1466H205.854V13.5346H207.054ZM213.237 14.5786H210.357V13.5346H217.305V14.5786H214.425V21.9346H213.237V14.5786ZM222.954 22.0306C222.322 22.0306 221.71 21.9346 221.118 21.7426C220.534 21.5426 220.074 21.2866 219.738 20.9746L220.182 20.0386C220.502 20.3266 220.91 20.5626 221.406 20.7466C221.91 20.9226 222.426 21.0106 222.954 21.0106C223.65 21.0106 224.17 20.8946 224.514 20.6626C224.858 20.4226 225.03 20.1066 225.03 19.7146C225.03 19.4266 224.934 19.1946 224.742 19.0186C224.558 18.8346 224.326 18.6946 224.046 18.5986C223.774 18.5026 223.386 18.3946 222.882 18.2746C222.25 18.1226 221.738 17.9706 221.346 17.8186C220.962 17.6666 220.63 17.4346 220.35 17.1226C220.078 16.8026 219.942 16.3746 219.942 15.8386C219.942 15.3906 220.058 14.9866 220.29 14.6266C220.53 14.2666 220.89 13.9786 221.37 13.7626C221.85 13.5466 222.446 13.4386 223.158 13.4386C223.654 13.4386 224.142 13.5026 224.622 13.6306C225.102 13.7586 225.514 13.9426 225.858 14.1826L225.462 15.1426C225.11 14.9186 224.734 14.7506 224.334 14.6386C223.934 14.5186 223.542 14.4586 223.158 14.4586C222.478 14.4586 221.966 14.5826 221.622 14.8306C221.286 15.0786 221.118 15.3986 221.118 15.7906C221.118 16.0786 221.214 16.3146 221.406 16.4986C221.598 16.6746 221.834 16.8146 222.114 16.9186C222.402 17.0146 222.79 17.1186 223.278 17.2306C223.91 17.3826 224.418 17.5346 224.802 17.6866C225.186 17.8386 225.514 18.0706 225.786 18.3826C226.066 18.6946 226.206 19.1146 226.206 19.6426C226.206 20.0826 226.086 20.4866 225.846 20.8546C225.606 21.2146 225.242 21.5026 224.754 21.7186C224.266 21.9266 223.666 22.0306 222.954 22.0306Z" fill="#042BDB"></path><path d="M20.1185 7.00137C19.9291 6.81196 19.6722 6.70557 19.4044 6.70557C19.1366 6.70557 18.8797 6.81196 18.6903 7.00137L16.1656 9.52611C15.7711 9.92048 15.7711 10.5599 16.1656 10.9543C16.5599 11.3487 17.1994 11.3487 17.5938 10.9543L18.3945 10.1535V12.7649C18.3945 13.3227 18.8466 13.7748 19.4044 13.7748C19.9622 13.7748 20.4143 13.3227 20.4143 12.7649V10.1535L21.215 10.9543C21.6094 11.3487 22.2489 11.3487 22.6432 10.9543C23.0377 10.5599 23.0377 9.92048 22.6432 9.52611L20.1185 7.00137Z" fill="#042BDB"></path><path fill-rule="evenodd" clip-rule="evenodd" d="M16.8797 22.8639V12.7649C16.8797 14.1593 18.01 15.2897 19.4044 15.2897C20.7988 15.2897 21.9291 14.1593 21.9291 12.7649C22.5753 12.7649 23.2214 12.5184 23.7144 12.0255C24.7004 11.0395 24.7004 9.44093 23.7144 8.45495L22.9749 7.71546H32.0281C34.2591 7.71546 36.0677 9.52402 36.0677 11.755V22.8639C36.0677 25.0949 34.2591 26.9035 32.0281 26.9035H20.9192C18.6882 26.9035 16.8797 25.0949 16.8797 22.8639ZM22.939 16.8045C22.3813 16.8045 21.9291 17.2566 21.9291 17.8144V21.854C21.9291 22.4118 22.3813 22.8639 22.939 22.8639C23.4968 22.8639 23.9489 22.4118 23.9489 21.854V17.8144C23.9489 17.2566 23.4968 16.8045 22.939 16.8045ZM25.9687 11.755C25.9687 11.1973 26.4208 10.7451 26.9786 10.7451C27.5364 10.7451 27.9885 11.1973 27.9885 11.755V21.854C27.9885 22.4118 27.5364 22.8639 26.9786 22.8639C26.4208 22.8639 25.9687 22.4118 25.9687 21.854V11.755ZM31.0182 14.7847C30.4604 14.7847 30.0083 15.2369 30.0083 15.7946V21.854C30.0083 22.4118 30.4604 22.8639 31.0182 22.8639C31.576 22.8639 32.0281 22.4118 32.0281 21.854V15.7946C32.0281 15.2369 31.576 14.7847 31.0182 14.7847Z" fill="#042BDB"></path></svg> 