<?xml version="1.0" encoding="UTF-8"?> <svg xmlns="http://www.w3.org/2000/svg" width="360" height="139" viewBox="0 0 360 139" fill="none"><path d="M68.0788 22.32C71.5988 22.32 74.8254 23.0667 77.7588 24.56C80.6921 26 83.0121 28.08 84.7188 30.8C86.4788 33.4667 87.3588 36.5333 87.3588 40C87.3588 43.7867 86.3721 47.1467 84.3988 50.08C82.4788 52.96 79.8388 55.2 76.4788 56.8C73.1721 58.3467 69.4654 59.12 65.3588 59.12C57.3588 59.12 51.0388 56.7467 46.3988 52C41.7588 47.2533 39.4388 40.4267 39.4388 31.52C39.4388 25.12 40.6654 19.6267 43.1188 15.04C45.6254 10.4 49.1188 6.88 53.5988 4.48C58.0788 2.08 63.2788 0.879996 69.1988 0.879996C72.3988 0.879996 75.4388 1.22666 78.3188 1.92C81.1988 2.61333 83.6521 3.62666 85.6788 4.96L79.9188 16.32C77.1988 14.4 73.7588 13.44 69.5988 13.44C65.5454 13.44 62.2654 14.56 59.7588 16.8C57.2521 19.04 55.8121 22.2667 55.4388 26.48C58.6388 23.7067 62.8521 22.32 68.0788 22.32ZM64.3988 47.84C66.6388 47.84 68.4521 47.2 69.8388 45.92C71.2788 44.64 71.9988 42.9067 71.9988 40.72C71.9988 38.5867 71.2788 36.88 69.8388 35.6C68.4521 34.32 66.6121 33.68 64.3188 33.68C62.0254 33.68 60.1588 34.3467 58.7188 35.68C57.2788 36.96 56.5588 38.6667 56.5588 40.8C56.5588 42.88 57.2521 44.5867 58.6388 45.92C60.0788 47.2 61.9988 47.84 64.3988 47.84ZM116.112 59.12C111.312 59.12 107.045 57.9733 103.312 55.68C99.5785 53.3867 96.6452 50.0533 94.5119 45.68C92.4319 41.2533 91.3919 36.0267 91.3919 30C91.3919 23.9733 92.4319 18.7733 94.5119 14.4C96.6452 9.97333 99.5785 6.61333 103.312 4.32C107.045 2.02666 111.312 0.879996 116.112 0.879996C120.859 0.879996 125.099 2.02666 128.832 4.32C132.565 6.61333 135.472 9.97333 137.552 14.4C139.685 18.7733 140.752 23.9733 140.752 30C140.752 36.0267 139.685 41.2533 137.552 45.68C135.472 50.0533 132.565 53.3867 128.832 55.68C125.099 57.9733 120.859 59.12 116.112 59.12ZM116.112 46.16C118.779 46.16 120.885 44.88 122.432 42.32C124.032 39.7067 124.832 35.6 124.832 30C124.832 24.4 124.032 20.32 122.432 17.76C120.885 15.1467 118.779 13.84 116.112 13.84C113.392 13.84 111.232 15.1467 109.632 17.76C108.085 20.32 107.312 24.4 107.312 30C107.312 35.6 108.085 39.7067 109.632 42.32C111.232 44.88 113.392 46.16 116.112 46.16ZM170.878 59.12C166.078 59.12 161.811 57.9733 158.078 55.68C154.344 53.3867 151.411 50.0533 149.278 45.68C147.198 41.2533 146.158 36.0267 146.158 30C146.158 23.9733 147.198 18.7733 149.278 14.4C151.411 9.97333 154.344 6.61333 158.078 4.32C161.811 2.02666 166.078 0.879996 170.878 0.879996C175.624 0.879996 179.864 2.02666 183.598 4.32C187.331 6.61333 190.238 9.97333 192.318 14.4C194.451 18.7733 195.518 23.9733 195.518 30C195.518 36.0267 194.451 41.2533 192.318 45.68C190.238 50.0533 187.331 53.3867 183.598 55.68C179.864 57.9733 175.624 59.12 170.878 59.12ZM170.878 46.16C173.544 46.16 175.651 44.88 177.198 42.32C178.798 39.7067 179.598 35.6 179.598 30C179.598 24.4 178.798 20.32 177.198 17.76C175.651 15.1467 173.544 13.84 170.878 13.84C168.158 13.84 165.998 15.1467 164.398 17.76C162.851 20.32 162.078 24.4 162.078 30C162.078 35.6 162.851 39.7067 164.398 42.32C165.998 44.88 168.158 46.16 170.878 46.16ZM254.363 58L254.203 28.32L239.803 52.48H232.763L218.443 29.12V58H203.803V2H216.843L236.523 34.32L255.723 2H268.763L268.923 58H254.363ZM318.611 35.84H305.091V49.04H292.771V35.84H279.171V24.16H292.771V10.96H305.091V24.16H318.611V35.84Z" fill="url(#paint0_linear_5460_82135)"></path><path d="M39.2111 78.572C40.5924 78.572 41.8431 78.8987 42.9631 79.552C44.1017 80.1867 44.9977 81.1013 45.6511 82.296C46.3231 83.472 46.6591 84.844 46.6591 86.412C46.6591 87.98 46.3231 89.3613 45.6511 90.556C44.9977 91.732 44.1017 92.6467 42.9631 93.3C41.8431 93.9347 40.5924 94.252 39.2111 94.252C37.4377 94.252 36.0284 93.72 34.9831 92.656V99.432H29.6631V78.824H34.7311V80.336C35.7204 79.16 37.2137 78.572 39.2111 78.572ZM38.0911 90.024C39.0244 90.024 39.7897 89.7067 40.3871 89.072C40.9844 88.4187 41.2831 87.532 41.2831 86.412C41.2831 85.292 40.9844 84.4147 40.3871 83.78C39.7897 83.1267 39.0244 82.8 38.0911 82.8C37.1577 82.8 36.3924 83.1267 35.7951 83.78C35.1977 84.4147 34.8991 85.292 34.8991 86.412C34.8991 87.532 35.1977 88.4187 35.7951 89.072C36.3924 89.7067 37.1577 90.024 38.0911 90.024ZM54.1998 80.644C54.7412 79.9533 55.4412 79.44 56.2998 79.104C57.1772 78.7493 58.1758 78.572 59.2958 78.572V83.36C58.8105 83.304 58.4092 83.276 58.0918 83.276C56.9532 83.276 56.0572 83.584 55.4038 84.2C54.7692 84.816 54.4518 85.7587 54.4518 87.028V94H49.1318V78.824H54.1998V80.644ZM68.9705 94.252C67.3465 94.252 65.8812 93.916 64.5745 93.244C63.2678 92.572 62.2412 91.6387 61.4945 90.444C60.7665 89.2493 60.4025 87.896 60.4025 86.384C60.4025 84.8907 60.7665 83.5467 61.4945 82.352C62.2412 81.1573 63.2585 80.2333 64.5465 79.58C65.8532 78.908 67.3278 78.572 68.9705 78.572C70.6132 78.572 72.0878 78.908 73.3945 79.58C74.7012 80.2333 75.7185 81.1573 76.4465 82.352C77.1745 83.528 77.5385 84.872 77.5385 86.384C77.5385 87.896 77.1745 89.2493 76.4465 90.444C75.7185 91.6387 74.7012 92.572 73.3945 93.244C72.0878 93.916 70.6132 94.252 68.9705 94.252ZM68.9705 90.024C69.9038 90.024 70.6692 89.7067 71.2665 89.072C71.8638 88.4187 72.1625 87.5227 72.1625 86.384C72.1625 85.264 71.8638 84.3867 71.2665 83.752C70.6692 83.1173 69.9038 82.8 68.9705 82.8C68.0372 82.8 67.2718 83.1173 66.6745 83.752C66.0772 84.3867 65.7785 85.264 65.7785 86.384C65.7785 87.5227 66.0772 88.4187 66.6745 89.072C67.2718 89.7067 68.0372 90.024 68.9705 90.024ZM96.1309 73.224V94H91.0629V92.488C90.0736 93.664 88.5896 94.252 86.6109 94.252C85.2296 94.252 83.9696 93.9347 82.8309 93.3C81.6923 92.6467 80.7869 91.7227 80.1149 90.528C79.4616 89.3333 79.1349 87.952 79.1349 86.384C79.1349 84.816 79.4616 83.444 80.1149 82.268C80.7869 81.0733 81.6923 80.1587 82.8309 79.524C83.9696 78.8893 85.2296 78.572 86.6109 78.572C88.4216 78.572 89.8216 79.0947 90.8109 80.14V73.224H96.1309ZM87.7309 90.024C88.6456 90.024 89.4016 89.7067 89.9989 89.072C90.5963 88.4187 90.8949 87.5227 90.8949 86.384C90.8949 85.264 90.5963 84.3867 89.9989 83.752C89.4203 83.1173 88.6643 82.8 87.7309 82.8C86.7976 82.8 86.0323 83.1173 85.4349 83.752C84.8376 84.3867 84.5389 85.264 84.5389 86.384C84.5389 87.5227 84.8376 88.4187 85.4349 89.072C86.0323 89.7067 86.7976 90.024 87.7309 90.024ZM115.514 78.824V94H110.446V92.376C109.886 92.992 109.214 93.4587 108.43 93.776C107.646 94.0933 106.815 94.252 105.938 94.252C103.978 94.252 102.41 93.6733 101.234 92.516C100.076 91.3587 99.4977 89.6227 99.4977 87.308V78.824H104.818V86.44C104.818 87.5787 105.032 88.4093 105.462 88.932C105.891 89.4547 106.516 89.716 107.338 89.716C108.178 89.716 108.859 89.4267 109.382 88.848C109.923 88.2507 110.194 87.3453 110.194 86.132V78.824H115.514ZM126.696 94.252C125.016 94.252 123.514 93.916 122.188 93.244C120.863 92.572 119.827 91.6387 119.08 90.444C118.352 89.2493 117.988 87.896 117.988 86.384C117.988 84.872 118.352 83.528 119.08 82.352C119.827 81.1573 120.863 80.2333 122.188 79.58C123.514 78.908 125.016 78.572 126.696 78.572C128.414 78.572 129.898 78.9453 131.148 79.692C132.399 80.42 133.286 81.4373 133.808 82.744L129.692 84.844C129.002 83.4813 127.994 82.8 126.668 82.8C125.716 82.8 124.923 83.1173 124.288 83.752C123.672 84.3867 123.364 85.264 123.364 86.384C123.364 87.5227 123.672 88.4187 124.288 89.072C124.923 89.7067 125.716 90.024 126.668 90.024C127.994 90.024 129.002 89.3427 129.692 87.98L133.808 90.08C133.286 91.3867 132.399 92.4133 131.148 93.16C129.898 93.888 128.414 94.252 126.696 94.252ZM146.53 93.384C146.082 93.664 145.531 93.8787 144.878 94.028C144.243 94.1773 143.562 94.252 142.834 94.252C140.855 94.252 139.334 93.7667 138.27 92.796C137.206 91.8253 136.674 90.3787 136.674 88.456V83.36H134.462V79.384H136.674V75.436H141.994V79.384H145.466V83.36H141.994V88.4C141.994 88.9413 142.134 89.3707 142.414 89.688C142.712 89.9867 143.104 90.136 143.59 90.136C144.206 90.136 144.747 89.9773 145.214 89.66L146.53 93.384ZM154.097 94.252C152.828 94.252 151.577 94.112 150.345 93.832C149.113 93.5333 148.124 93.1507 147.377 92.684L148.973 89.044C149.664 89.4733 150.485 89.8187 151.437 90.08C152.389 90.3227 153.332 90.444 154.265 90.444C155.124 90.444 155.73 90.36 156.085 90.192C156.458 90.0053 156.645 89.744 156.645 89.408C156.645 89.072 156.421 88.8387 155.973 88.708C155.544 88.5587 154.853 88.4187 153.901 88.288C152.688 88.1387 151.652 87.9427 150.793 87.7C149.953 87.4573 149.225 87.0093 148.609 86.356C147.993 85.7027 147.685 84.788 147.685 83.612C147.685 82.6413 147.974 81.7827 148.553 81.036C149.132 80.2707 149.972 79.6733 151.073 79.244C152.193 78.796 153.528 78.572 155.077 78.572C156.178 78.572 157.27 78.684 158.353 78.908C159.436 79.132 160.341 79.4493 161.069 79.86L159.473 83.472C158.129 82.7253 156.673 82.352 155.105 82.352C154.265 82.352 153.649 82.4547 153.257 82.66C152.865 82.8467 152.669 83.0987 152.669 83.416C152.669 83.7707 152.884 84.0227 153.313 84.172C153.742 84.3027 154.452 84.4427 155.441 84.592C156.692 84.7787 157.728 84.9933 158.549 85.236C159.37 85.4787 160.08 85.9267 160.677 86.58C161.293 87.2147 161.601 88.1107 161.601 89.268C161.601 90.22 161.312 91.0787 160.733 91.844C160.154 92.5907 159.296 93.1787 158.157 93.608C157.037 94.0373 155.684 94.252 154.097 94.252ZM182.514 93.384C182.066 93.664 181.515 93.8787 180.862 94.028C180.227 94.1773 179.546 94.252 178.818 94.252C176.839 94.252 175.318 93.7667 174.254 92.796C173.19 91.8253 172.658 90.3787 172.658 88.456V83.36H170.446V79.384H172.658V75.436H177.978V79.384H181.45V83.36H177.978V88.4C177.978 88.9413 178.118 89.3707 178.398 89.688C178.697 89.9867 179.089 90.136 179.574 90.136C180.19 90.136 180.731 89.9773 181.198 89.66L182.514 93.384ZM189.633 80.644C190.175 79.9533 190.875 79.44 191.733 79.104C192.611 78.7493 193.609 78.572 194.729 78.572V83.36C194.244 83.304 193.843 83.276 193.525 83.276C192.387 83.276 191.491 83.584 190.837 84.2C190.203 84.816 189.885 85.7587 189.885 87.028V94H184.565V78.824H189.633V80.644ZM203.283 78.572C205.803 78.572 207.726 79.1507 209.051 80.308C210.377 81.4467 211.039 83.2013 211.039 85.572V94H206.083V92.04C205.318 93.5147 203.825 94.252 201.603 94.252C200.427 94.252 199.41 94.0467 198.551 93.636C197.693 93.2253 197.039 92.6747 196.591 91.984C196.162 91.2747 195.947 90.472 195.947 89.576C195.947 88.1387 196.498 87.028 197.599 86.244C198.701 85.4413 200.399 85.04 202.695 85.04H205.719C205.626 83.4347 204.553 82.632 202.499 82.632C201.771 82.632 201.034 82.7533 200.287 82.996C199.541 83.22 198.906 83.5373 198.383 83.948L196.591 80.336C197.431 79.776 198.449 79.3467 199.643 79.048C200.857 78.7307 202.07 78.572 203.283 78.572ZM203.087 90.892C203.703 90.892 204.245 90.7427 204.711 90.444C205.178 90.1453 205.514 89.7067 205.719 89.128V87.812H203.423C201.874 87.812 201.099 88.3253 201.099 89.352C201.099 89.8187 201.277 90.192 201.631 90.472C201.986 90.752 202.471 90.892 203.087 90.892ZM222.372 94.252C220.692 94.252 219.19 93.916 217.864 93.244C216.539 92.572 215.503 91.6387 214.756 90.444C214.028 89.2493 213.664 87.896 213.664 86.384C213.664 84.872 214.028 83.528 214.756 82.352C215.503 81.1573 216.539 80.2333 217.864 79.58C219.19 78.908 220.692 78.572 222.372 78.572C224.09 78.572 225.574 78.9453 226.824 79.692C228.075 80.42 228.962 81.4373 229.484 82.744L225.368 84.844C224.678 83.4813 223.67 82.8 222.344 82.8C221.392 82.8 220.599 83.1173 219.964 83.752C219.348 84.3867 219.04 85.264 219.04 86.384C219.04 87.5227 219.348 88.4187 219.964 89.072C220.599 89.7067 221.392 90.024 222.344 90.024C223.67 90.024 224.678 89.3427 225.368 87.98L229.484 90.08C228.962 91.3867 228.075 92.4133 226.824 93.16C225.574 93.888 224.09 94.252 222.372 94.252ZM238.321 88.68L236.753 90.276V94H231.433V73.224H236.753V84.116L242.185 78.824H248.485L242.185 85.32L249.017 94H242.577L238.321 88.68ZM265.456 86.44C265.456 86.4773 265.428 86.916 265.372 87.756H254.34C254.564 88.54 254.994 89.1467 255.628 89.576C256.282 89.9867 257.094 90.192 258.064 90.192C258.792 90.192 259.418 90.0893 259.94 89.884C260.482 89.6787 261.023 89.3427 261.564 88.876L264.364 91.788C262.89 93.4307 260.734 94.252 257.896 94.252C256.123 94.252 254.564 93.916 253.22 93.244C251.876 92.572 250.831 91.6387 250.084 90.444C249.356 89.2493 248.992 87.896 248.992 86.384C248.992 84.8907 249.347 83.556 250.056 82.38C250.784 81.1853 251.783 80.252 253.052 79.58C254.322 78.908 255.75 78.572 257.336 78.572C258.848 78.572 260.22 78.8893 261.452 79.524C262.684 80.14 263.655 81.0453 264.364 82.24C265.092 83.416 265.456 84.816 265.456 86.44ZM257.364 82.352C256.543 82.352 255.852 82.5853 255.292 83.052C254.751 83.5187 254.406 84.1533 254.256 84.956H260.472C260.323 84.1533 259.968 83.5187 259.408 83.052C258.867 82.5853 258.186 82.352 257.364 82.352ZM284.037 73.224V94H278.969V92.488C277.98 93.664 276.496 94.252 274.517 94.252C273.136 94.252 271.876 93.9347 270.737 93.3C269.599 92.6467 268.693 91.7227 268.021 90.528C267.368 89.3333 267.041 87.952 267.041 86.384C267.041 84.816 267.368 83.444 268.021 82.268C268.693 81.0733 269.599 80.1587 270.737 79.524C271.876 78.8893 273.136 78.572 274.517 78.572C276.328 78.572 277.728 79.0947 278.717 80.14V73.224H284.037ZM275.637 90.024C276.552 90.024 277.308 89.7067 277.905 89.072C278.503 88.4187 278.801 87.5227 278.801 86.384C278.801 85.264 278.503 84.3867 277.905 83.752C277.327 83.1173 276.571 82.8 275.637 82.8C274.704 82.8 273.939 83.1173 273.341 83.752C272.744 84.3867 272.445 85.264 272.445 86.384C272.445 87.5227 272.744 88.4187 273.341 89.072C273.939 89.7067 274.704 90.024 275.637 90.024ZM303.224 94.252C301.6 94.252 300.135 93.916 298.828 93.244C297.522 92.572 296.495 91.6387 295.748 90.444C295.02 89.2493 294.656 87.896 294.656 86.384C294.656 84.8907 295.02 83.5467 295.748 82.352C296.495 81.1573 297.512 80.2333 298.8 79.58C300.107 78.908 301.582 78.572 303.224 78.572C304.867 78.572 306.342 78.908 307.648 79.58C308.955 80.2333 309.972 81.1573 310.7 82.352C311.428 83.528 311.792 84.872 311.792 86.384C311.792 87.896 311.428 89.2493 310.7 90.444C309.972 91.6387 308.955 92.572 307.648 93.244C306.342 93.916 304.867 94.252 303.224 94.252ZM303.224 90.024C304.158 90.024 304.923 89.7067 305.52 89.072C306.118 88.4187 306.416 87.5227 306.416 86.384C306.416 85.264 306.118 84.3867 305.52 83.752C304.923 83.1173 304.158 82.8 303.224 82.8C302.291 82.8 301.526 83.1173 300.928 83.752C300.331 84.3867 300.032 85.264 300.032 86.384C300.032 87.5227 300.331 88.4187 300.928 89.072C301.526 89.7067 302.291 90.024 303.224 90.024ZM324.141 78.572C326.026 78.572 327.538 79.132 328.677 80.252C329.834 81.372 330.413 83.0613 330.413 85.32V94H325.093V86.188C325.093 84.116 324.262 83.08 322.601 83.08C321.686 83.08 320.949 83.3787 320.389 83.976C319.847 84.5733 319.577 85.4693 319.577 86.664V94H314.257V78.824H319.325V80.476C319.922 79.86 320.631 79.3933 321.453 79.076C322.274 78.74 323.17 78.572 324.141 78.572ZM133.897 126.192H125.609L124.069 130H118.413L127.065 110.4H132.525L141.205 130H135.437L133.897 126.192ZM132.273 122.104L129.753 115.832L127.233 122.104H132.273ZM162.292 114.572C164.159 114.572 165.643 115.132 166.744 116.252C167.864 117.372 168.424 119.061 168.424 121.32V130H163.104V122.188C163.104 121.124 162.899 120.34 162.488 119.836C162.096 119.332 161.536 119.08 160.808 119.08C160.006 119.08 159.362 119.36 158.876 119.92C158.391 120.48 158.148 121.329 158.148 122.468V130H152.828V122.188C152.828 120.116 152.063 119.08 150.532 119.08C149.711 119.08 149.058 119.36 148.572 119.92C148.087 120.48 147.844 121.329 147.844 122.468V130H142.524V114.824H147.592V116.42C148.152 115.804 148.815 115.347 149.58 115.048C150.364 114.731 151.214 114.572 152.128 114.572C153.192 114.572 154.144 114.768 154.984 115.16C155.824 115.552 156.506 116.149 157.028 116.952C157.626 116.187 158.382 115.599 159.296 115.188C160.211 114.777 161.21 114.572 162.292 114.572ZM178.25 114.572C180.77 114.572 182.693 115.151 184.018 116.308C185.344 117.447 186.006 119.201 186.006 121.572V130H181.05V128.04C180.285 129.515 178.792 130.252 176.57 130.252C175.394 130.252 174.377 130.047 173.518 129.636C172.66 129.225 172.006 128.675 171.558 127.984C171.129 127.275 170.914 126.472 170.914 125.576C170.914 124.139 171.465 123.028 172.566 122.244C173.668 121.441 175.366 121.04 177.662 121.04H180.686C180.593 119.435 179.52 118.632 177.466 118.632C176.738 118.632 176.001 118.753 175.254 118.996C174.508 119.22 173.873 119.537 173.35 119.948L171.558 116.336C172.398 115.776 173.416 115.347 174.61 115.048C175.824 114.731 177.037 114.572 178.25 114.572ZM178.054 126.892C178.67 126.892 179.212 126.743 179.678 126.444C180.145 126.145 180.481 125.707 180.686 125.128V123.812H178.39C176.841 123.812 176.066 124.325 176.066 125.352C176.066 125.819 176.244 126.192 176.598 126.472C176.953 126.752 177.438 126.892 178.054 126.892ZM202.58 126.024V130H188.58V126.864L195.608 118.772H188.776V114.824H202.3V117.932L195.272 126.024H202.58ZM212.375 130.252C210.751 130.252 209.285 129.916 207.979 129.244C206.672 128.572 205.645 127.639 204.899 126.444C204.171 125.249 203.807 123.896 203.807 122.384C203.807 120.891 204.171 119.547 204.899 118.352C205.645 117.157 206.663 116.233 207.951 115.58C209.257 114.908 210.732 114.572 212.375 114.572C214.017 114.572 215.492 114.908 216.799 115.58C218.105 116.233 219.123 117.157 219.851 118.352C220.579 119.528 220.943 120.872 220.943 122.384C220.943 123.896 220.579 125.249 219.851 126.444C219.123 127.639 218.105 128.572 216.799 129.244C215.492 129.916 214.017 130.252 212.375 130.252ZM212.375 126.024C213.308 126.024 214.073 125.707 214.671 125.072C215.268 124.419 215.567 123.523 215.567 122.384C215.567 121.264 215.268 120.387 214.671 119.752C214.073 119.117 213.308 118.8 212.375 118.8C211.441 118.8 210.676 119.117 210.079 119.752C209.481 120.387 209.183 121.264 209.183 122.384C209.183 123.523 209.481 124.419 210.079 125.072C210.676 125.707 211.441 126.024 212.375 126.024ZM233.291 114.572C235.177 114.572 236.689 115.132 237.827 116.252C238.985 117.372 239.563 119.061 239.563 121.32V130H234.243V122.188C234.243 120.116 233.413 119.08 231.751 119.08C230.837 119.08 230.099 119.379 229.539 119.976C228.998 120.573 228.727 121.469 228.727 122.664V130H223.407V114.824H228.475V116.476C229.073 115.86 229.782 115.393 230.603 115.076C231.425 114.74 232.321 114.572 233.291 114.572Z" fill="black"></path><defs><linearGradient id="paint0_linear_5460_82135" x1="60" y1="2" x2="272.136" y2="99.3669" gradientUnits="userSpaceOnUse"><stop stop-color="#F57706"></stop><stop offset="1" stop-color="#E80183"></stop></linearGradient></defs></svg> 