<?xml version="1.0" encoding="UTF-8"?> <svg xmlns="http://www.w3.org/2000/svg" width="82" height="82" viewBox="0 0 82 82" fill="none"><rect width="82" height="82" rx="10" fill="url(#paint0_linear_5573_86073)"></rect><path d="M26 62V52M26 32V22M21 27H31M21 57H31M43 24L39.5316 33.0177C38.9676 34.4842 38.6856 35.2174 38.2471 35.8342C37.8584 36.3808 37.3808 36.8584 36.8342 37.2471C36.2174 37.6856 35.4842 37.9676 34.0177 38.5316L25 42L34.0177 45.4684C35.4842 46.0324 36.2174 46.3144 36.8342 46.7529C37.3808 47.1416 37.8584 47.6192 38.2471 48.1658C38.6856 48.7826 38.9676 49.5158 39.5316 50.9823L43 60L46.4684 50.9823C47.0324 49.5158 47.3144 48.7826 47.7529 48.1658C48.1416 47.6192 48.6192 47.1416 49.1658 46.7529C49.7826 46.3144 50.5158 46.0324 51.9823 45.4684L61 42L51.9823 38.5316C50.5158 37.9676 49.7826 37.6856 49.1658 37.2471C48.6192 36.8584 48.1416 36.3808 47.7529 35.8342C47.3144 35.2174 47.0324 34.4842 46.4684 33.0177L43 24Z" stroke="black" stroke-width="2.5" stroke-linecap="round" stroke-linejoin="round"></path><defs><linearGradient id="paint0_linear_5573_86073" x1="85.5" y1="93" x2="-6.5" y2="-7" gradientUnits="userSpaceOnUse"><stop offset="0.00119337" stop-color="#FFB565"></stop><stop offset="0.655" stop-color="#F57706"></stop><stop offset="1" stop-color="#FF649D"></stop></linearGradient></defs></svg> 