<?xml version="1.0" encoding="UTF-8"?> <svg xmlns="http://www.w3.org/2000/svg" width="82" height="82" viewBox="0 0 82 82" fill="none"><rect width="82" height="82" rx="10" fill="url(#paint0_linear_5573_86067)"></rect><path d="M59 59H26.2C25.0799 59 24.5198 59 24.092 58.782C23.7157 58.5903 23.4097 58.2843 23.218 57.908C23 57.4802 23 56.9201 23 55.8V23M59 31L48.1314 41.8686C47.7354 42.2646 47.5373 42.4627 47.309 42.5368C47.1082 42.6021 46.8918 42.6021 46.691 42.5368C46.4627 42.4627 46.2646 42.2646 45.8686 41.8686L42.1314 38.1314C41.7354 37.7354 41.5373 37.5373 41.309 37.4632C41.1082 37.3979 40.8918 37.3979 40.691 37.4632C40.4627 37.5373 40.2646 37.7354 39.8686 38.1314L31 47M59 31H51M59 31V39" stroke="black" stroke-width="2.5" stroke-linecap="round" stroke-linejoin="round"></path><defs><linearGradient id="paint0_linear_5573_86067" x1="85.5" y1="93" x2="-6.5" y2="-7" gradientUnits="userSpaceOnUse"><stop offset="0.00119337" stop-color="#FAC800"></stop><stop offset="1" stop-color="#FF9A32"></stop></linearGradient></defs></svg> 