<?xml version="1.0" encoding="UTF-8"?> <svg xmlns="http://www.w3.org/2000/svg" width="48" height="48" viewBox="0 0 48 48" fill="none"><path d="M42 42H9.2C8.07989 42 7.51984 42 7.09202 41.782C6.71569 41.5903 6.40973 41.2843 6.21799 40.908C6 40.4802 6 39.9201 6 38.8V6M42 14L31.1314 24.8686C30.7354 25.2646 30.5373 25.4627 30.309 25.5368C30.1082 25.6021 29.8918 25.6021 29.691 25.5368C29.4627 25.4627 29.2646 25.2646 28.8686 24.8686L25.1314 21.1314C24.7354 20.7354 24.5373 20.5373 24.309 20.4632C24.1082 20.3979 23.8918 20.3979 23.691 20.4632C23.4627 20.5373 23.2646 20.7354 22.8686 21.1314L14 30M42 14H34M42 14V22" stroke="black" stroke-width="2.25" stroke-linecap="round" stroke-linejoin="round"></path></svg> 