<?xml version="1.0" encoding="UTF-8"?> <svg xmlns="http://www.w3.org/2000/svg" width="32" height="33" viewBox="0 0 32 33" fill="none"><path d="M26 4.28125H6C5.46957 4.28125 4.96086 4.49196 4.58579 4.86703C4.21071 5.24211 4 5.75082 4 6.28125V26.2812C4 26.8117 4.21071 27.3204 4.58579 27.6955C4.96086 28.0705 5.46957 28.2812 6 28.2812H26C26.5304 28.2812 27.0391 28.0705 27.4142 27.6955C27.7893 27.3204 28 26.8117 28 26.2812V6.28125C28 5.75082 27.7893 5.24211 27.4142 4.86703C27.0391 4.49196 26.5304 4.28125 26 4.28125ZM12 22.2812H10V14.2812H12V22.2812ZM11 13.2812C10.7033 13.2812 10.4133 13.1933 10.1666 13.0285C9.91997 12.8636 9.72771 12.6294 9.61418 12.3553C9.50065 12.0812 9.47094 11.7796 9.52882 11.4886C9.5867 11.1976 9.72956 10.9304 9.93934 10.7206C10.1491 10.5108 10.4164 10.368 10.7074 10.3101C10.9983 10.2522 11.2999 10.2819 11.574 10.3954C11.8481 10.509 12.0824 10.7012 12.2472 10.9479C12.412 11.1946 12.5 11.4846 12.5 11.7812C12.5 12.1791 12.342 12.5606 12.0607 12.8419C11.7794 13.1232 11.3978 13.2812 11 13.2812ZM22 22.2812H20V18.2812C20 17.7508 19.7893 17.2421 19.4142 16.867C19.0391 16.492 18.5304 16.2812 18 16.2812C17.4696 16.2812 16.9609 16.492 16.5858 16.867C16.2107 17.2421 16 17.7508 16 18.2812V22.2812H14V14.3613H16V14.8313C16.607 14.4808 17.2955 14.296 17.9965 14.2953C18.6974 14.2947 19.3862 14.4783 19.9939 14.8277C20.6016 15.1771 21.1067 15.6801 21.4588 16.2862C21.8109 16.8923 21.9975 17.5803 22 18.2812V22.2812Z" fill="black"></path></svg> 