<?xml version="1.0" encoding="UTF-8"?> <svg xmlns="http://www.w3.org/2000/svg" width="32" height="33" viewBox="0 0 32 33" fill="none"><path d="M29.6147 10.3892C29.5077 9.78283 29.2083 9.22266 28.757 8.78482C28.3058 8.34697 27.7247 8.05268 27.0926 7.94194C19.7262 7.06102 12.2738 7.06102 4.90742 7.94194C4.27534 8.05268 3.6942 8.34697 3.24297 8.78482C2.79174 9.22266 2.49229 9.78283 2.38531 10.3892C1.87156 14.6364 1.87156 18.9261 2.38531 23.1733C2.49229 23.7797 2.79174 24.3398 3.24297 24.7777C3.6942 25.2155 4.27534 25.5098 4.90742 25.6206C12.2738 26.5015 19.7262 26.5015 27.0926 25.6206C27.7247 25.5098 28.3058 25.2155 28.757 24.7777C29.2083 24.3398 29.5077 23.7797 29.6147 23.1733C30.1284 18.9261 30.1284 14.6364 29.6147 10.3892ZM13.653 21.2512V12.3113L20.6589 16.7812L13.653 21.2512Z" fill="black"></path></svg> 