<?xml version="1.0" encoding="UTF-8"?> <svg xmlns="http://www.w3.org/2000/svg" width="32" height="33" viewBox="0 0 32 33" fill="none"><path d="M26 4.28125H6C5.46957 4.28125 4.96086 4.49196 4.58578 4.86704C4.21071 5.24211 4 5.75082 4 6.28125V26.2812C4 26.8117 4.21071 27.3204 4.58578 27.6955C4.96086 28.0705 5.46957 28.2812 6 28.2812H16V18.2812H14V16.2812H16V14.2812C16 12.9552 16.5268 11.6834 17.4645 10.7457C18.4021 9.80803 19.6739 9.28125 21 9.28125H23V11.2812H21C20.2044 11.2812 19.4413 11.5973 18.8787 12.1599C18.3161 12.7225 18 13.4856 18 14.2812V16.2812H23V18.2812H18V28.2812H26C26.5304 28.2812 27.0391 28.0705 27.4142 27.6955C27.7893 27.3204 28 26.8117 28 26.2812V6.28125C28 5.75082 27.7893 5.24211 27.4142 4.86704C27.0391 4.49196 26.5304 4.28125 26 4.28125Z" fill="black"></path></svg> 