<?xml version="1.0" encoding="UTF-8"?> <svg xmlns="http://www.w3.org/2000/svg" width="32" height="33" viewBox="0 0 32 33" fill="none"><path d="M22 4.28125H10C8.4087 4.28125 6.88257 4.91339 5.75735 6.03861C4.63214 7.16383 4 8.68995 4 10.2812V22.2812C4 23.8725 4.63214 25.3987 5.75735 26.5239C6.88257 27.6491 8.4087 28.2812 10 28.2812H22C23.5913 28.2812 25.1174 27.6491 26.2426 26.5239C27.3679 25.3987 28 23.8725 28 22.2812V10.2812C28 8.68995 27.3679 7.16383 26.2426 6.03861C25.1174 4.91339 23.5913 4.28125 22 4.28125ZM16 21.2812C15.0111 21.2812 14.0444 20.988 13.2221 20.4386C12.3999 19.8892 11.7591 19.1083 11.3806 18.1947C11.0022 17.281 10.9031 16.2757 11.0961 15.3058C11.289 14.3359 11.7652 13.445 12.4645 12.7457C13.1637 12.0465 14.0546 11.5702 15.0245 11.3773C15.9944 11.1844 16.9998 11.2834 17.9134 11.6619C18.8271 12.0403 19.6079 12.6812 20.1573 13.5034C20.7068 14.3256 21 15.2923 21 16.2812C21 16.9379 20.8707 17.588 20.6194 18.1947C20.3681 18.8013 19.9998 19.3525 19.5355 19.8168C19.0712 20.2811 18.5201 20.6494 17.9134 20.9006C17.3068 21.1519 16.6566 21.2812 16 21.2812ZM22.5 11.2812C22.2033 11.2812 21.9133 11.1933 21.6667 11.0285C21.42 10.8636 21.2277 10.6294 21.1142 10.3553C21.0006 10.0812 20.9709 9.77959 21.0288 9.48862C21.0867 9.19764 21.2296 8.93037 21.4393 8.72059C21.6491 8.51081 21.9164 8.36795 22.2074 8.31007C22.4983 8.25219 22.7999 8.2819 23.074 8.39543C23.3481 8.50896 23.5824 8.70122 23.7472 8.9479C23.912 9.19457 24 9.48458 24 9.78125C24 10.1791 23.842 10.5606 23.5607 10.8419C23.2794 11.1232 22.8978 11.2812 22.5 11.2812Z" fill="black"></path></svg> 