<?xml version="1.0" encoding="UTF-8"?> <svg xmlns="http://www.w3.org/2000/svg" width="32" height="33" viewBox="0 0 32 33" fill="none"><path fill-rule="evenodd" clip-rule="evenodd" d="M7 4.28125C5.34315 4.28125 4 5.6244 4 7.28125V25.2812C4 26.9381 5.34315 28.2812 7 28.2812H25C26.6569 28.2812 28 26.9381 28 25.2812V7.28125C28 5.6244 26.6569 4.28125 25 4.28125H7ZM22.5459 9.28125L17.3333 15.21L23 23.2812H18.8308L15.0135 17.8449L10.2348 23.2812H9L14.4661 17.0648L9 9.28125H13.1692L16.7831 14.428L21.3111 9.28125H22.5459ZM12.5775 10.1924H10.6805L19.4127 22.4149H21.3102L12.5775 10.1924Z" fill="black"></path></svg> 