<?xml version="1.0" encoding="UTF-8"?> <svg xmlns="http://www.w3.org/2000/svg" width="255" height="28" viewBox="0 0 255 28" fill="none"><path d="M0 18.6092L1.88441 16.6522C2.84147 17.8878 3.79854 18.5875 5.16497 18.5875C6.70176 18.5875 7.74802 17.5615 7.74802 15.3709V4.69955H10.7027V15.4648C10.7027 17.3977 10.1218 18.8428 9.16819 19.7979C8.21455 20.7529 6.84012 21.2361 5.21299 21.2361C2.69969 21.243 1.07141 20.0773 0 18.6092Z" fill="white"></path><path d="M13.8496 16.5367V8.70752H16.6659V15.6984C16.6659 17.6154 17.623 18.6803 19.2959 18.6803C20.9687 18.6803 22.0642 17.5615 22.0642 15.6446V8.70866H24.9022V21.0129H22.0642V19.096C21.266 20.2606 20.134 21.2625 18.2256 21.2625C15.4562 21.2694 13.8508 19.404 13.8508 16.5389L13.8496 16.5367Z" fill="white"></path><path d="M28.0968 8.70785H30.9132V10.595C31.7113 9.45217 32.8433 8.4502 34.7517 8.4502C37.52 8.4502 39.1266 10.3144 39.1266 13.1578V21.0098H36.3103V14.0212C36.3103 12.1043 35.3532 11.0141 33.6803 11.0141C32.0074 11.0141 30.912 12.1569 30.912 14.0681V21.0109H28.0957V8.70785H28.0968Z" fill="white"></path><path d="M42.1819 23.3166L43.2304 21.1958C44.5568 22.0123 45.929 22.5012 47.6041 22.5012C50.1174 22.5012 51.4896 21.1958 51.4896 18.7258V17.7673C50.4673 19.0968 49.1866 20.0278 47.1627 20.0278C44.2778 20.0278 41.5781 17.883 41.5781 14.2759V14.2267C41.5781 10.5909 44.3007 8.44727 47.1627 8.44727C49.237 8.44727 50.513 9.40573 51.4713 10.5451V8.70721H54.283V18.4945C54.283 20.5717 53.749 22.1062 52.7245 23.1288C51.6073 24.2475 49.8864 24.7823 47.6761 24.7823C45.746 24.8041 43.8467 24.2979 42.1842 23.3166H42.1819ZM51.5124 14.2518V14.206C51.5124 12.2021 49.8613 10.828 47.906 10.828C45.9507 10.828 44.415 12.1803 44.415 14.206V14.2518C44.415 16.2569 45.9735 17.6311 47.906 17.6311C49.8384 17.6311 51.5124 16.2569 51.5124 14.2518Z" fill="white"></path><path d="M57.6621 4H60.4716V21.0095H57.6621V4Z" fill="white"></path><path d="M63.3203 14.9063V14.8662C63.3203 11.3507 65.8096 8.45703 69.3223 8.45703C73.2317 8.45703 75.2099 11.5328 75.2099 15.0758C75.2099 15.3311 75.1859 15.5888 75.1642 15.8751H66.1366C66.4385 17.879 67.8587 18.9978 69.6722 18.9978C71.0455 18.9978 72.022 18.4848 73.0008 17.5298L74.6519 18.9978C73.489 20.396 71.8836 21.3041 69.6264 21.3041C66.0669 21.2915 63.3203 18.7024 63.3203 14.9075V14.9063ZM72.4153 13.9971C72.2324 12.1798 71.1632 10.7587 69.3006 10.7587C67.5785 10.7587 66.3676 12.087 66.1092 13.9971H72.4153Z" fill="white"></path><path d="M80.0059 18.6338L81.7279 16.5841C83.2864 17.9364 84.8701 18.7014 86.87 18.7014C88.6378 18.7014 89.7549 17.862 89.7549 16.6493V16.6035C89.7549 15.439 89.1043 14.8091 86.0856 14.1106C82.6186 13.2713 80.6611 12.2464 80.6611 9.24045V9.19465C80.6611 6.39828 82.9891 4.46533 86.2228 4.46533C88.5955 4.46533 90.4799 5.1879 92.1264 6.51508L90.5931 8.68507C89.1272 7.59035 87.6624 7.00748 86.1713 7.00748C84.4962 7.00748 83.5197 7.8709 83.5197 8.94272V8.98853C83.5197 10.2459 84.2652 10.8058 87.4051 11.5456C90.8503 12.3849 92.6181 13.6228 92.6181 16.3218V16.3676C92.6181 19.4217 90.2249 21.2378 86.8002 21.2378C84.2904 21.2515 81.8663 20.3229 80.0059 18.635V18.6338Z" fill="white"></path><path d="M94.0331 14.9285V14.8826C94.0331 11.3878 96.7316 8.45169 100.432 8.45169C102.736 8.45169 104.178 9.31511 105.342 10.5724L103.574 12.4607C102.712 11.5515 101.805 10.9217 100.409 10.9217C98.3622 10.9217 96.8494 12.692 96.8494 14.8368V14.8826C96.8494 17.0732 98.3622 18.8218 100.519 18.8218C101.845 18.8218 102.823 18.2161 103.71 17.3068L105.409 18.9844C104.198 20.3368 102.779 21.2907 100.384 21.2907C96.7328 21.2907 94.0354 18.4256 94.0354 14.9296L94.0331 14.9285Z" fill="white"></path><path d="M121.518 16.5371V8.70801H124.332V15.6989C124.332 17.6158 125.289 18.6808 126.962 18.6808C128.634 18.6808 129.73 17.562 129.73 15.6451V8.70915H132.568V21.0134H129.731V19.0965C128.933 20.2611 127.801 21.263 125.892 21.263C123.123 21.2699 121.518 19.4045 121.518 16.5394V16.5371Z" fill="white"></path><path d="M136.344 17.6081V11.1302H134.785V8.70833H136.344V5.3291H139.16V8.70833H142.465V11.1302H139.16V17.165C139.16 18.2609 139.718 18.704 140.673 18.704C141.279 18.7063 141.878 18.562 142.417 18.2838V20.5912C141.645 21.0286 140.768 21.2462 139.882 21.221C137.811 21.221 136.344 20.3118 136.344 17.6081Z" fill="white"></path><path d="M106.492 14.9284V14.8826C106.492 11.3671 109.284 8.45166 113.053 8.45166C116.822 8.45166 119.595 11.3179 119.595 14.8437V14.8895C119.595 18.3855 116.803 21.2975 113.01 21.2975C109.26 21.2907 106.492 18.4256 106.492 14.9296V14.9284ZM116.778 14.9284V14.8826C116.778 12.7161 115.219 10.9217 113.008 10.9217C110.745 10.9217 109.309 12.692 109.309 14.8368V14.8826C109.309 17.0274 110.869 18.8218 113.054 18.8218C115.24 18.8218 116.776 17.0503 116.776 14.9296L116.778 14.9284Z" fill="white"></path><path d="M113.041 11.9053C114.124 12.1835 114.997 13.4569 114.997 14.8871C114.997 16.1777 114.297 17.3766 113.391 17.8358C115.017 17.5759 116.124 16.0449 115.863 14.4165C115.639 13.0137 114.459 11.9637 113.041 11.9053Z" fill="white"></path><rect x="154" width="101" height="28" fill="white"></rect><path d="M168.234 18.979C167.259 18.979 166.375 18.7671 165.583 18.3433C164.801 17.9103 164.184 17.316 163.733 16.5606C163.292 15.8051 163.071 14.9529 163.071 14.004C163.071 13.055 163.296 12.2029 163.747 11.4474C164.198 10.6919 164.815 10.1023 165.597 9.6785C166.389 9.2455 167.272 9.02899 168.248 9.02899C169.04 9.02899 169.762 9.16719 170.416 9.44357C171.069 9.71996 171.621 10.1207 172.072 10.6459L170.913 11.7376C170.213 10.9821 169.353 10.6044 168.331 10.6044C167.668 10.6044 167.075 10.7518 166.55 11.0466C166.025 11.3322 165.616 11.733 165.321 12.2489C165.027 12.7648 164.879 13.3499 164.879 14.004C164.879 14.6581 165.027 15.2431 165.321 15.759C165.616 16.275 166.025 16.6803 166.55 16.9752C167.075 17.2608 167.668 17.4036 168.331 17.4036C169.353 17.4036 170.213 17.0212 170.913 16.2565L172.072 17.3621C171.621 17.8872 171.065 18.288 170.402 18.5644C169.748 18.8408 169.026 18.979 168.234 18.979Z" fill="#00022B"></path><path d="M183.318 18.979C182.333 18.979 181.445 18.7671 180.653 18.3433C179.862 17.9103 179.24 17.316 178.789 16.5606C178.338 15.7959 178.113 14.9437 178.113 14.004C178.113 13.0643 178.338 12.2167 178.789 11.4612C179.24 10.6965 179.862 10.1023 180.653 9.6785C181.445 9.2455 182.333 9.02899 183.318 9.02899C184.303 9.02899 185.191 9.2455 185.983 9.6785C186.774 10.1023 187.395 10.6919 187.846 11.4474C188.297 12.2029 188.523 13.055 188.523 14.004C188.523 14.9529 188.297 15.8051 187.846 16.5606C187.395 17.316 186.774 17.9103 185.983 18.3433C185.191 18.7671 184.303 18.979 183.318 18.979ZM183.318 17.4036C183.962 17.4036 184.542 17.2608 185.058 16.9752C185.573 16.6803 185.978 16.275 186.273 15.759C186.567 15.2339 186.714 14.6489 186.714 14.004C186.714 13.3591 186.567 12.7787 186.273 12.2627C185.978 11.7376 185.573 11.3322 185.058 11.0466C184.542 10.7518 183.962 10.6044 183.318 10.6044C182.674 10.6044 182.094 10.7518 181.578 11.0466C181.063 11.3322 180.658 11.7376 180.363 12.2627C180.069 12.7787 179.922 13.3591 179.922 14.004C179.922 14.6489 180.069 15.2339 180.363 15.759C180.658 16.275 181.063 16.6803 181.578 16.9752C182.094 17.2608 182.674 17.4036 183.318 17.4036Z" fill="#00022B"></path><path d="M202.487 13.8105C203.021 13.9856 203.444 14.2804 203.757 14.695C204.07 15.1003 204.226 15.607 204.226 16.2151C204.226 17.0535 203.904 17.703 203.26 18.1636C202.616 18.6151 201.677 18.8408 200.443 18.8408H195.639V9.16719H200.167C201.309 9.16719 202.188 9.3929 202.804 9.84434C203.421 10.2866 203.729 10.8992 203.729 11.6823C203.729 12.1614 203.619 12.5852 203.398 12.9537C203.177 13.3222 202.873 13.6078 202.487 13.8105ZM197.434 10.5768V13.2439H199.974C200.6 13.2439 201.078 13.1334 201.41 12.9122C201.75 12.6819 201.921 12.3503 201.921 11.9173C201.921 11.475 201.75 11.1434 201.41 10.9223C201.078 10.6919 200.6 10.5768 199.974 10.5768H197.434ZM200.333 17.4312C201.723 17.4312 202.418 16.9659 202.418 16.0354C202.418 15.1049 201.723 14.6397 200.333 14.6397H197.434V17.4312H200.333Z" fill="#00022B"></path><path d="M217.623 16.602H212.791L211.838 18.8408H209.988L214.337 9.16719H216.105L220.467 18.8408H218.59L217.623 16.602ZM217.03 15.1925L215.207 10.9637L213.398 15.1925H217.03Z" fill="#00022B"></path><path d="M226.91 9.16719H228.705V17.3206H233.758V18.8408H226.91V9.16719Z" fill="#00022B"></path><path d="M241.445 10.6873H238.242V9.16719H246.443V10.6873H243.24V18.8408H241.445V10.6873Z" fill="#00022B"></path><path d="M183.242 11.8188C184.048 12.0255 184.697 12.9738 184.697 14.0381C184.697 14.9988 184.176 15.8911 183.501 16.2319C184.711 16.0384 185.535 14.8992 185.341 13.6875C185.174 12.6437 184.296 11.8617 183.241 11.8188H183.242Z" fill="#00022B"></path></svg> 