<?xml version="1.0" encoding="UTF-8"?> <svg xmlns="http://www.w3.org/2000/svg" width="48" height="48" viewBox="0 0 48 48" fill="none"><path d="M42.4208 31.7799C41.1484 34.7889 39.1584 37.4403 36.6246 39.5025C34.0907 41.5647 31.0903 42.9747 27.8857 43.6095C24.681 44.2442 21.3697 44.0842 18.2411 43.1435C15.1125 42.2028 12.2621 40.51 9.93885 38.2132C7.61563 35.9164 5.89043 33.0854 4.91408 29.9678C3.93772 26.8502 3.73993 23.5409 4.338 20.3292C4.93607 17.1175 6.3118 14.1012 8.3449 11.544C10.378 8.98676 13.0066 6.96653 16.0008 5.65989M42.4784 16.3462C43.279 18.2792 43.7702 20.3226 43.9368 22.4016C43.978 22.9152 43.9986 23.172 43.8966 23.4033C43.8114 23.5965 43.6427 23.7794 43.4568 23.8797C43.2344 23.9999 42.9565 23.9999 42.4008 23.9999H25.6008C25.0408 23.9999 24.7607 23.9999 24.5468 23.8909C24.3587 23.795 24.2057 23.642 24.1098 23.4539C24.0008 23.24 24.0008 22.9599 24.0008 22.3999V5.59989C24.0008 5.04416 24.0008 4.76629 24.121 4.54386C24.2213 4.35805 24.4042 4.18927 24.5974 4.10408C24.8287 4.0021 25.0855 4.02268 25.5991 4.06386C27.6781 4.23054 29.7215 4.72166 31.6545 5.5223C34.081 6.5274 36.2858 8.00059 38.1429 9.85776C40.0001 11.7149 41.4733 13.9197 42.4784 16.3462Z" stroke="black" stroke-width="2" stroke-linecap="round" stroke-linejoin="round"></path></svg> 