<?xml version="1.0" encoding="UTF-8"?> <svg xmlns="http://www.w3.org/2000/svg" width="49" height="48" viewBox="0 0 49 48" fill="none"><path d="M38.5214 15.95L10.4786 32.05M38.5214 15.95L41.0612 6.52442M38.5214 15.95L48 18.4756M10.4786 32.05L1 29.5244M10.4786 32.05L7.9388 41.4756M38.5212 32.0497L10.4784 15.9497M38.5212 32.0497L48 29.5242M38.5212 32.0497L41.0612 41.4753M10.4784 15.9497L7.93913 6.52468M10.4784 15.9497L1.00033 18.4758M24.5 7.9L24.5 40.1M24.5 7.9L17.5612 1M24.5 7.9L31.4388 1M24.5 40.1L17.5612 47M24.5 40.1L31.4388 47" stroke="black" stroke-width="2" stroke-linecap="round" stroke-linejoin="round"></path></svg> 